<svg width="248" height="223" viewBox="0 0 248 223" fill="none" xmlns="http://www.w3.org/2000/svg">
<path d="M35.1782 199.626C81.8617 230.482 157.545 230.482 204.223 199.626C250.901 168.771 250.906 118.741 204.223 87.8857C157.539 57.0303 81.8562 57.0303 35.1782 87.8857C-11.4997 118.741 -11.5052 168.771 35.1782 199.626Z" fill="#FAFAFA"/>
<path d="M147.226 157.853C136.245 165.868 136.245 178.874 147.226 186.896C158.208 194.919 176.003 194.919 186.984 186.896C197.966 178.874 197.96 165.868 186.984 157.853C176.009 149.837 158.202 149.83 147.226 157.853Z" fill="#EBEBEB"/>
<path d="M31.6068 42.8752L61.0243 31.3L38.3929 51.1371L31.6068 42.8752Z" fill="#01D2FF"/>
<path d="M61.0243 31.3007L29.3393 37.913L22.5532 29.644L61.0243 31.3007Z" fill="#01D2FF"/>
<path d="M29.3392 37.9124V47.831L31.6068 42.8752L61.0243 31.3L29.3392 37.9124Z" fill="#455A64"/>
<path d="M29.3392 47.8305L33.8689 45.6311L31.6068 42.8748L29.3392 47.8305Z" fill="#01D2FF"/>
<path d="M31.6068 42.8748L33.8688 45.6311L33.1445 45.9765L31.6068 42.8748Z" fill="#455A64"/>
<path d="M24.464 46.3364C24.3703 46.3386 24.2788 46.3009 24.2041 46.2294C24.1293 46.1578 24.0758 46.0566 24.052 45.9419C24.0282 45.8273 24.0356 45.7058 24.0729 45.5971C24.1103 45.4884 24.1754 45.3986 24.2579 45.3424C24.7593 44.9899 25.2663 44.6374 25.7677 44.3625C25.8175 44.3285 25.8721 44.3076 25.9284 44.301C25.9847 44.2945 26.0415 44.3025 26.0953 44.3245C26.149 44.3466 26.1987 44.3822 26.2413 44.4292C26.2839 44.4762 26.3185 44.5337 26.343 44.5982C26.3676 44.6626 26.3815 44.7327 26.384 44.8042C26.3865 44.8756 26.3775 44.947 26.3576 45.0139C26.3377 45.0808 26.3072 45.142 26.2681 45.1936C26.2289 45.2452 26.1819 45.2862 26.1299 45.3142C25.6452 45.6103 25.1493 45.9275 24.6646 46.2729C24.6026 46.3137 24.5339 46.3354 24.464 46.3364V46.3364Z" fill="#E0E0E0"/>
<path d="M19.3218 103.268C19.2365 103.269 19.1528 103.237 19.0823 103.177C18.1761 102.368 17.3177 101.478 16.5138 100.512C16.4629 100.47 16.4197 100.415 16.3874 100.35C16.3551 100.284 16.3344 100.211 16.3268 100.135C16.3191 100.059 16.3247 99.9813 16.3431 99.9081C16.3615 99.8349 16.3923 99.7676 16.4334 99.711C16.4745 99.6543 16.5248 99.6097 16.5809 99.5802C16.637 99.5507 16.6974 99.537 16.7581 99.5401C16.8188 99.5432 16.8783 99.563 16.9323 99.5981C16.9863 99.6332 17.0336 99.6828 17.071 99.7435C17.8464 100.675 18.6751 101.532 19.5503 102.309C19.6224 102.375 19.6762 102.467 19.704 102.574C19.7318 102.68 19.732 102.795 19.7047 102.902C19.6774 103.009 19.624 103.102 19.5522 103.168C19.4803 103.234 19.3938 103.269 19.3051 103.268H19.3218ZM14.9538 98.1362C14.8921 98.1371 14.831 98.1204 14.7751 98.0875C14.7192 98.0546 14.6698 98.0061 14.6306 97.9459C13.9286 96.8617 13.2899 95.7143 12.7196 94.5128C12.662 94.3922 12.6446 94.2476 12.6712 94.1107C12.6979 93.9739 12.7664 93.8561 12.8617 93.7832C12.957 93.7102 13.0713 93.6882 13.1794 93.7219C13.2876 93.7556 13.3807 93.8423 13.4383 93.9629C13.9877 95.1216 14.6021 96.2289 15.2769 97.2762C15.3465 97.384 15.3797 97.5222 15.3693 97.6607C15.3589 97.7993 15.3057 97.9271 15.2212 98.0164C15.1466 98.0962 15.0515 98.1388 14.9538 98.1362V98.1362ZM11.817 91.7212C11.7361 91.7222 11.6567 91.6934 11.5884 91.6383C11.5202 91.5833 11.4661 91.5043 11.4326 91.411C10.9773 90.1348 10.5865 88.8234 10.2626 87.4845C10.2388 87.3543 10.2549 87.2174 10.3077 87.1016C10.3604 86.9858 10.4459 86.8995 10.5469 86.8602C10.6478 86.8209 10.7568 86.8314 10.8519 86.8897C10.947 86.948 11.0211 87.0497 11.0593 87.1743C11.3673 88.4692 11.7395 89.7383 12.1736 90.974C12.197 91.0373 12.2102 91.1059 12.2124 91.1758C12.2147 91.2456 12.206 91.3153 12.1868 91.3809C12.1676 91.4464 12.1384 91.5065 12.1007 91.5577C12.0631 91.6088 12.0178 91.65 11.9675 91.6789C11.9201 91.7055 11.8689 91.7199 11.817 91.7212ZM10.0063 84.5237C9.90967 84.5226 9.81633 84.4792 9.74217 84.4008C9.66801 84.3224 9.61763 84.2139 9.59959 84.0937C9.38691 82.724 9.23623 81.3401 9.1483 79.9487C9.13943 79.8084 9.17495 79.6695 9.24705 79.5624C9.31914 79.4553 9.42191 79.3889 9.53273 79.3777C9.64355 79.3664 9.75336 79.4114 9.838 79.5026C9.92263 79.5938 9.97516 79.7238 9.98402 79.8641C10.066 81.2155 10.2111 82.5596 10.4186 83.8893C10.4299 83.9574 10.4303 84.0277 10.4199 84.096C10.4094 84.1643 10.3882 84.2293 10.3576 84.2871C10.3269 84.3449 10.2875 84.3944 10.2415 84.4326C10.1955 84.4708 10.144 84.497 10.0899 84.5096L10.0063 84.5237ZM9.47702 76.9949C9.42192 76.995 9.36738 76.981 9.31662 76.9539C9.26586 76.9269 9.21991 76.8872 9.18147 76.8372C9.14304 76.7873 9.1129 76.7281 9.09285 76.6632C9.0728 76.5982 9.06324 76.5289 9.06473 76.4592C9.07776 75.064 9.15216 73.6707 9.28759 72.2859C9.28822 72.2116 9.30124 72.1383 9.32579 72.0707C9.35034 72.0032 9.38587 71.943 9.43006 71.894C9.47425 71.845 9.52611 71.8084 9.58225 71.7865C9.63839 71.7645 9.69755 71.7579 9.75587 71.7668C9.81419 71.7758 9.87036 71.8002 9.92072 71.8385C9.97107 71.8768 10.0145 71.9281 10.0481 71.9891C10.0817 72.0501 10.1048 72.1193 10.1158 72.1923C10.1269 72.2653 10.1256 72.3405 10.1122 72.4128C9.98335 73.7604 9.91267 75.1159 9.90045 76.4733C9.89972 76.5427 9.88819 76.6113 9.86652 76.6751C9.84485 76.7389 9.81345 76.7967 9.77413 76.8451C9.73481 76.8935 9.68834 76.9317 9.63736 76.9574C9.58638 76.9831 9.53189 76.9959 9.47702 76.9949V76.9949ZM10.1567 69.4873C10.1254 69.4941 10.0934 69.4941 10.062 69.4873C9.95436 69.4569 9.86055 69.3739 9.80105 69.2564C9.74156 69.1389 9.72121 68.9963 9.74445 68.8599C9.98858 67.4944 10.3012 66.1499 10.6805 64.8347C10.6989 64.766 10.7283 64.703 10.7669 64.6493C10.8054 64.5957 10.8523 64.5527 10.9046 64.5229C10.9568 64.4931 11.0133 64.4773 11.0706 64.4764C11.1279 64.4754 11.1848 64.4894 11.2376 64.5175C11.2914 64.5417 11.3407 64.5794 11.3826 64.6283C11.4246 64.6773 11.4583 64.7365 11.4817 64.8023C11.5051 64.8682 11.5178 64.9393 11.5189 65.0115C11.5201 65.0837 11.5097 65.1554 11.4883 65.2224C11.1228 66.494 10.8213 67.7938 10.5857 69.1137C10.5582 69.2282 10.5008 69.3275 10.4229 69.3954C10.3449 69.4633 10.2511 69.4957 10.1567 69.4873V69.4873ZM12.1402 62.3674C12.0759 62.3706 12.0123 62.3511 11.9563 62.311C11.9065 62.2816 11.8618 62.2398 11.8249 62.1882C11.7879 62.1366 11.7596 62.0762 11.7414 62.0105C11.7232 61.9448 11.7156 61.8752 11.7191 61.8057C11.7225 61.7363 11.7368 61.6684 11.7613 61.6061C12.2476 60.3498 12.7947 59.1326 13.3993 57.9615C13.4602 57.8523 13.5515 57.7763 13.6549 57.7488C13.7583 57.7214 13.866 57.7445 13.9565 57.8135C14.0448 57.8883 14.1069 58.0034 14.1297 58.1348C14.1525 58.2661 14.1344 58.4036 14.0791 58.5184C13.4913 59.6496 12.961 60.8269 12.4912 62.0431C12.4624 62.1332 12.4142 62.2112 12.3522 62.2685C12.2902 62.3258 12.2168 62.36 12.1402 62.3674V62.3674ZM15.3438 56.0229C15.2506 56.0241 15.16 55.9842 15.0875 55.9101C15.0441 55.8668 15.0078 55.8131 14.9809 55.752C14.954 55.6909 14.937 55.6237 14.9308 55.5542C14.9245 55.4847 14.9293 55.4143 14.9447 55.3471C14.9601 55.2799 14.986 55.2173 15.0206 55.1629C15.7169 54.0746 16.4609 53.0367 17.2492 52.0541C17.3276 51.9551 17.4338 51.8994 17.5445 51.8994C17.6553 51.8994 17.7615 51.9551 17.8398 52.0541C17.9181 52.1532 17.962 52.2876 17.962 52.4277C17.962 52.5678 17.9181 52.7022 17.8398 52.8013C17.0805 53.7598 16.3626 54.7693 15.6892 55.8255C15.6461 55.8858 15.5924 55.9326 15.5324 55.962C15.4724 55.9913 15.4078 56.0025 15.3438 55.9947V56.0229ZM19.5336 50.6089C19.4728 50.6088 19.4128 50.5916 19.3579 50.5587C19.303 50.5258 19.2546 50.478 19.216 50.4186C19.1454 50.3105 19.1111 50.1717 19.1205 50.032C19.1299 49.8923 19.1821 49.7628 19.2661 49.6714C20.1143 48.7789 20.9976 47.9413 21.9126 47.1618C22.0024 47.0921 22.1097 47.0679 22.213 47.094C22.3163 47.1202 22.408 47.1947 22.4697 47.3028C22.5319 47.4198 22.5551 47.5632 22.5342 47.7018C22.5134 47.8404 22.4501 47.963 22.3583 48.0429C21.4656 48.8014 20.6046 49.6178 19.7787 50.4891C19.7087 50.5601 19.6231 50.602 19.5336 50.6089V50.6089Z" fill="#E0E0E0"/>
<path d="M23.1549 106.025C23.0951 106.026 23.036 106.009 22.9822 105.976C22.464 105.68 21.9514 105.363 21.4611 105.024C21.4132 104.992 21.3707 104.949 21.3361 104.896C21.3015 104.843 21.2754 104.783 21.2593 104.717C21.2433 104.652 21.2376 104.583 21.2426 104.515C21.2476 104.446 21.2632 104.38 21.2884 104.319C21.3404 104.198 21.4278 104.108 21.5319 104.067C21.636 104.026 21.7485 104.038 21.8456 104.101C22.3247 104.425 22.8206 104.735 23.322 105.024C23.408 105.075 23.4778 105.161 23.52 105.268C23.5622 105.376 23.5742 105.498 23.5542 105.616C23.5341 105.733 23.483 105.838 23.4095 105.914C23.3359 105.989 23.2441 106.031 23.1493 106.032L23.1549 106.025Z" fill="#E0E0E0"/>
<path d="M213.728 80.4409L237.295 61.3511L247.675 65.5666L213.728 80.4409Z" fill="#01D2FF"/>
<path d="M213.728 80.442L234.097 58.9554L229.567 52.343L213.728 80.442Z" fill="#01D2FF"/>
<path d="M234.097 58.9556V63.9395L213.728 80.4422L234.097 58.9556Z" fill="#455A64"/>
<path d="M238.693 56.8752C238.592 56.8757 238.495 56.8278 238.42 56.7413C238.338 56.6478 238.288 56.5174 238.281 56.3777C238.273 56.2381 238.309 56.1004 238.381 55.994C239.107 54.97 239.751 53.8579 240.304 52.6737C240.36 52.5522 240.452 52.4639 240.559 52.4282C240.667 52.3925 240.781 52.4124 240.877 52.4834C240.973 52.5545 241.043 52.6709 241.071 52.807C241.1 52.9432 241.084 53.088 241.028 53.2095C240.444 54.4508 239.769 55.6192 239.011 56.699C238.971 56.7554 238.922 56.8003 238.867 56.8307C238.813 56.8612 238.753 56.8763 238.693 56.8752ZM241.88 50.3052C241.83 50.3152 241.78 50.3152 241.73 50.3052C241.677 50.2796 241.629 50.2409 241.588 50.1912C241.548 50.1415 241.516 50.0819 241.494 50.016C241.472 49.9501 241.461 49.8793 241.461 49.8078C241.461 49.7364 241.473 49.6657 241.496 49.6002C241.89 48.3162 242.184 46.9871 242.376 45.6314C242.396 45.493 242.459 45.3704 242.55 45.2904C242.642 45.2104 242.754 45.1796 242.864 45.2049C242.973 45.2301 243.07 45.3093 243.133 45.425C243.196 45.5406 243.221 45.6834 243.201 45.8217C242.995 47.2423 242.684 48.6349 242.27 49.9809C242.239 50.0784 242.185 50.1617 242.115 50.2195C242.045 50.2774 241.964 50.3073 241.88 50.3052V50.3052ZM243.073 42.7411C243.018 42.7402 242.964 42.7256 242.914 42.6981C242.864 42.6705 242.818 42.6307 242.781 42.5809C242.743 42.531 242.713 42.4721 242.693 42.4077C242.674 42.3432 242.664 42.2744 242.666 42.2054C242.666 42.0221 242.666 41.8388 242.666 41.6555C242.663 40.4587 242.589 39.2639 242.443 38.0814C242.427 37.9423 242.455 37.8008 242.52 37.6874C242.586 37.574 242.684 37.4978 242.794 37.4752C242.904 37.4567 243.015 37.4926 243.104 37.5754C243.193 37.6581 243.254 37.7814 243.273 37.9193C243.424 39.1556 243.5 40.4046 243.502 41.6555C243.502 41.8458 243.502 42.0362 243.502 42.2265C243.497 42.3661 243.45 42.4981 243.37 42.5942C243.29 42.6903 243.183 42.7431 243.073 42.7411V42.7411ZM242.231 35.0995C242.142 35.0991 242.054 35.0618 241.983 34.9931C241.912 34.9244 241.86 34.8281 241.836 34.7189C241.516 33.3962 241.116 32.1069 240.638 30.8628C240.613 30.8005 240.599 30.7326 240.596 30.6631C240.592 30.5937 240.6 30.524 240.618 30.4583C240.636 30.3926 240.664 30.3322 240.701 30.2806C240.738 30.229 240.783 30.1873 240.833 30.1579C240.933 30.0973 241.047 30.0892 241.152 30.1355C241.256 30.1817 241.342 30.2785 241.39 30.4046C241.888 31.6974 242.304 33.0388 242.632 34.4157C242.649 34.4819 242.654 34.5515 242.649 34.6205C242.644 34.6895 242.628 34.7564 242.602 34.8175C242.576 34.8785 242.541 34.9324 242.498 34.976C242.455 35.0196 242.406 35.052 242.354 35.0713C242.315 35.0909 242.273 35.1005 242.231 35.0995V35.0995ZM239.646 28.0994C239.576 28.1003 239.506 28.0779 239.445 28.0347C239.383 27.9915 239.332 27.9287 239.295 27.8527C238.698 26.6926 238.041 25.5834 237.328 24.5324C237.292 24.4797 237.265 24.4186 237.248 24.3524C237.231 24.2863 237.224 24.2165 237.228 24.1471C237.232 24.0777 237.247 24.0099 237.272 23.9478C237.297 23.8857 237.331 23.8305 237.373 23.7852C237.414 23.7399 237.462 23.7054 237.514 23.6837C237.566 23.662 237.62 23.6535 237.675 23.6587C237.729 23.664 237.782 23.6828 237.831 23.7142C237.879 23.7456 237.923 23.7889 237.958 23.8416C238.698 24.9295 239.379 26.0788 239.997 27.2817C240.049 27.3978 240.064 27.5337 240.042 27.6637C240.019 27.7936 239.96 27.9086 239.875 27.9867C239.808 28.0487 239.729 28.0854 239.646 28.0924V28.0994ZM235.746 22.1709C235.64 22.1704 235.538 22.1173 235.462 22.0228C234.66 21.0728 233.817 20.1785 232.938 19.344C232.894 19.3024 232.857 19.2502 232.829 19.1905C232.801 19.1307 232.783 19.0646 232.775 18.9959C232.767 18.9271 232.77 18.8571 232.784 18.7899C232.798 18.7226 232.822 18.6594 232.854 18.6039C232.887 18.5483 232.929 18.5015 232.976 18.4661C233.023 18.4308 233.075 18.4075 233.13 18.3977C233.184 18.3879 233.239 18.3917 233.292 18.4089C233.346 18.4261 233.396 18.4565 233.439 18.4981C234.345 19.3546 235.212 20.2748 236.036 21.2544C236.098 21.3271 236.141 21.4218 236.159 21.5261C236.178 21.6304 236.171 21.7393 236.14 21.8386C236.108 21.9378 236.054 22.0227 235.984 22.082C235.913 22.1413 235.831 22.1723 235.746 22.1709V22.1709ZM230.86 17.4759C230.781 17.475 230.703 17.4457 230.637 17.3914C230.258 17.0953 229.863 16.7992 229.461 16.5102C228.904 16.1154 228.347 15.7206 227.757 15.347C227.703 15.3197 227.654 15.2784 227.613 15.2258C227.573 15.1733 227.541 15.1106 227.521 15.0418C227.5 14.9729 227.492 14.8995 227.495 14.8261C227.498 14.7527 227.514 14.681 227.54 14.6156C227.566 14.5502 227.603 14.4924 227.648 14.4461C227.694 14.3997 227.746 14.3657 227.802 14.3463C227.858 14.3269 227.916 14.3225 227.974 14.3334C228.031 14.3443 228.086 14.3702 228.135 14.4094C228.72 14.7901 229.305 15.1849 229.874 15.5938C230.286 15.8828 230.687 16.1859 231.077 16.4961C231.167 16.5688 231.232 16.6824 231.258 16.8135C231.284 16.9446 231.269 17.0833 231.216 17.201C231.18 17.2815 231.129 17.349 231.066 17.3971C231.004 17.4452 230.933 17.4723 230.86 17.4759V17.4759ZM180.912 17.1164C180.838 17.1154 180.766 17.0902 180.702 17.0432C180.639 16.9962 180.586 16.9292 180.549 16.8485C180.497 16.7295 180.483 16.589 180.511 16.4572C180.539 16.3254 180.607 16.2128 180.7 16.1436C181.669 15.4387 182.667 14.7337 183.675 14.1416C183.774 14.0805 183.888 14.0714 183.993 14.1163C184.097 14.1612 184.183 14.2564 184.232 14.3812C184.279 14.5078 184.284 14.6522 184.248 14.7838C184.211 14.9154 184.136 15.0239 184.037 15.0862C183.045 15.6995 182.065 16.3551 181.112 17.053C181.05 17.0914 180.981 17.1084 180.912 17.1023V17.1164ZM225.428 13.8948C225.37 13.8953 225.312 13.8784 225.261 13.8455C224.258 13.2886 223.221 12.7669 222.185 12.3017C222.08 12.254 221.995 12.1555 221.947 12.028C221.899 11.9004 221.894 11.7541 221.932 11.6214C221.969 11.4887 222.047 11.3803 222.148 11.3201C222.249 11.26 222.364 11.253 222.469 11.3006C223.522 11.78 224.575 12.3087 225.6 12.8797C225.69 12.9278 225.763 13.0138 225.808 13.1229C225.853 13.232 225.866 13.3574 225.845 13.4775C225.825 13.5977 225.772 13.705 225.696 13.7812C225.62 13.8574 225.525 13.8975 225.428 13.8948V13.8948ZM186.399 13.6763C186.317 13.677 186.236 13.6465 186.168 13.5887C186.099 13.5309 186.046 13.4485 186.015 13.352C185.992 13.2874 185.98 13.2176 185.979 13.1468C185.978 13.076 185.988 13.0056 186.008 12.9399C186.029 12.8741 186.06 12.8143 186.1 12.764C186.139 12.7137 186.186 12.674 186.238 12.6471C187.269 12.0972 188.327 11.5897 189.386 11.1315C189.439 11.1036 189.496 11.0899 189.554 11.0913C189.611 11.0927 189.668 11.1091 189.72 11.1396C189.773 11.17 189.819 11.2138 189.858 11.2682C189.896 11.3226 189.925 11.3865 189.943 11.4557C189.963 11.5237 189.972 11.5961 189.97 11.6687C189.968 11.7413 189.954 11.8125 189.93 11.8783C189.905 11.944 189.871 12.0029 189.828 12.0514C189.785 12.0999 189.735 12.1371 189.681 12.1607C188.639 12.6118 187.592 13.1124 186.583 13.6481C186.523 13.6692 186.461 13.674 186.399 13.6622V13.6763ZM219.678 11.2372C219.639 11.2441 219.6 11.2441 219.561 11.2372C218.508 10.8495 217.427 10.5323 216.352 10.2009C216.298 10.1861 216.247 10.1581 216.202 10.1183C216.157 10.0786 216.118 10.028 216.088 9.96942C216.059 9.91084 216.038 9.84541 216.028 9.77688C216.019 9.70835 216.02 9.63806 216.031 9.57001C216.043 9.50197 216.065 9.43751 216.097 9.38032C216.128 9.32312 216.168 9.27431 216.214 9.23667C216.261 9.19903 216.312 9.1733 216.367 9.16095C216.421 9.14859 216.476 9.14986 216.53 9.16467C217.644 9.46779 218.725 9.82732 219.795 10.2221C219.891 10.2577 219.975 10.3362 220.029 10.4432C220.084 10.5502 220.106 10.6784 220.092 10.8044C220.077 10.9304 220.028 11.0457 219.952 11.1291C219.876 11.2124 219.778 11.2584 219.678 11.2584V11.2372ZM192.183 11.1315C192.091 11.131 192.003 11.0929 191.931 11.0229C191.858 10.9529 191.806 10.8549 191.781 10.7437C191.766 10.6776 191.761 10.6082 191.767 10.5397C191.773 10.4711 191.79 10.4048 191.817 10.3445C191.843 10.2842 191.879 10.2311 191.921 10.1883C191.964 10.1455 192.013 10.1139 192.066 10.0952C193.141 9.71452 194.244 9.39025 195.342 9.08007C195.397 9.05761 195.456 9.05015 195.514 9.05816C195.572 9.06618 195.628 9.08949 195.679 9.1266C195.729 9.16371 195.773 9.21379 195.807 9.27362C195.841 9.33344 195.865 9.40168 195.877 9.47394C195.89 9.5462 195.89 9.62087 195.878 9.69315C195.865 9.76542 195.842 9.83368 195.807 9.89354C195.773 9.9534 195.729 10.0035 195.679 10.0407C195.628 10.0779 195.572 10.1012 195.514 10.1093C194.433 10.3983 193.353 10.7367 192.294 11.1103L192.183 11.1315ZM213.705 9.53829H213.622C212.535 9.31976 211.427 9.14352 210.335 9.01663C210.277 9.01583 210.22 9.00001 210.168 8.97014C210.115 8.94027 210.068 8.897 210.03 8.84305C209.991 8.7891 209.961 8.72564 209.943 8.65663C209.925 8.58761 209.918 8.51454 209.923 8.442C209.928 8.36946 209.945 8.29901 209.972 8.23506C210 8.17111 210.037 8.11505 210.083 8.07039C210.128 8.02572 210.18 7.99342 210.236 7.9755C210.292 7.95759 210.35 7.95444 210.407 7.96627C211.521 8.09316 212.636 8.26939 213.75 8.49498C213.858 8.51918 213.955 8.59608 214.02 8.70931C214.084 8.82253 214.111 8.96315 214.095 9.10123C214.076 9.21531 214.027 9.31797 213.956 9.39321C213.886 9.46845 213.797 9.51202 213.705 9.51714V9.53829ZM198.166 9.48894C198.067 9.48889 197.971 9.44418 197.896 9.36281C197.82 9.28144 197.77 9.16873 197.754 9.04483C197.738 8.90572 197.766 8.76419 197.832 8.65077C197.897 8.53736 197.995 8.46115 198.105 8.43858C199.219 8.2271 200.334 8.05086 201.448 7.93102C201.503 7.925 201.558 7.93272 201.611 7.95373C201.663 7.97474 201.712 8.00863 201.754 8.05347C201.796 8.09831 201.831 8.15322 201.856 8.21507C201.882 8.27691 201.897 8.34447 201.902 8.4139C201.907 8.48333 201.901 8.55327 201.884 8.61972C201.868 8.68617 201.841 8.74783 201.805 8.80118C201.77 8.85453 201.726 8.89852 201.678 8.93065C201.629 8.96278 201.575 8.98242 201.52 8.98843C200.406 9.10827 199.32 9.27041 198.233 9.48894H198.166ZM207.61 8.784C206.496 8.73465 205.381 8.7276 204.295 8.784C204.24 8.78781 204.185 8.77755 204.134 8.75384C204.082 8.73014 204.035 8.69347 203.995 8.64605C203.955 8.59863 203.923 8.54144 203.901 8.47792C203.878 8.4144 203.867 8.34586 203.866 8.27644C203.864 8.20676 203.873 8.13723 203.892 8.07195C203.911 8.00666 203.941 7.94695 203.979 7.89634C204.017 7.84574 204.062 7.80527 204.113 7.77732C204.163 7.74938 204.218 7.73452 204.273 7.73364C205.387 7.68429 206.501 7.69134 207.616 7.73364C207.671 7.73546 207.725 7.75096 207.775 7.77923C207.825 7.8075 207.87 7.848 207.908 7.8984C207.946 7.94881 207.975 8.00815 207.995 8.07301C208.014 8.13788 208.024 8.207 208.022 8.27644C208.014 8.40868 207.967 8.53234 207.891 8.6235C207.815 8.71466 207.715 8.76682 207.61 8.7699V8.784Z" fill="#E0E0E0"/>
<path d="M205.509 90.7488V89.6209H205.292C204.961 88.8569 204.459 88.2339 203.849 87.8303C202.604 87.0309 201.228 86.6143 199.832 86.6143C198.436 86.6143 197.06 87.0309 195.815 87.8303C195.205 88.2339 194.703 88.8569 194.372 89.6209H194.155V90.7135C194.155 91.7921 194.712 92.8777 195.826 93.7025C197.072 94.4981 198.448 94.9126 199.843 94.9126C201.239 94.9126 202.615 94.4981 203.86 93.7025C204.963 92.9059 205.515 91.8203 205.509 90.7488Z" fill="#37474F"/>
<path d="M199.832 93.7718C202.968 93.7718 205.509 91.9128 205.509 89.6196C205.509 87.3265 202.968 85.4675 199.832 85.4675C196.697 85.4675 194.155 87.3265 194.155 89.6196C194.155 91.9128 196.697 93.7718 199.832 93.7718Z" fill="#455A64"/>
<path d="M198.372 55.0505V89.1345C198.384 89.2963 198.43 89.4512 198.504 89.5836C198.578 89.716 198.679 89.8213 198.796 89.8888C199.116 90.0939 199.47 90.2007 199.829 90.2007C200.188 90.2007 200.542 90.0939 200.863 89.8888C200.981 89.8229 201.083 89.7182 201.159 89.5856C201.234 89.453 201.28 89.2972 201.292 89.1345V55.0505H198.372Z" fill="#37474F"/>
<path d="M206.379 29.5376C204.958 28.5014 203.666 28.4168 202.696 29.1006L184.65 42.2971L193.704 65.2712L211.811 52.0183V41.9658C211.811 37.292 209.376 31.73 206.379 29.5376Z" fill="#455A64"/>
<path d="M193.704 55.2121V65.2717L182.845 57.334V47.2815C182.845 42.6077 185.274 40.5987 188.272 42.791C190.194 44.2009 191.882 46.9784 192.846 50.0237C193.385 51.6704 193.676 53.4301 193.704 55.2121Z" fill="#37474F"/>
<path d="M193.704 55.2123V65.2718L182.845 57.3342L192.846 50.0239C193.385 51.6705 193.676 53.4303 193.704 55.2123Z" fill="#263238"/>
<path d="M191.893 58.6585C190.895 55.0069 187.653 50.2697 184.65 48.0844C181.647 45.899 180.031 47.0763 181.028 50.7279L182.839 57.3403L193.704 65.2779C193.704 65.2779 192.896 62.3101 191.893 58.6585Z" fill="#455A64"/>
<path d="M199.364 55.5928L198.757 55.1487C198.627 55.0729 198.483 55.0421 198.34 55.0594C198.197 55.0767 198.06 55.1416 197.944 55.2474C197.608 55.5252 197.329 55.8991 197.128 56.3387C196.928 56.7783 196.812 57.2714 196.79 57.7781C196.775 57.9596 196.799 58.1429 196.858 58.3091C196.918 58.4752 197.012 58.618 197.13 58.7227V58.7227L197.687 59.1316L197.793 58.9131C197.909 58.8814 198.02 58.8267 198.122 58.7509C198.457 58.4746 198.737 58.1021 198.937 57.6636C199.137 57.2251 199.253 56.733 199.275 56.2272C199.275 56.1011 199.261 55.9756 199.236 55.8536L199.364 55.5928Z" fill="#263238"/>
<path d="M198.523 55.678C198.187 55.9544 197.908 56.3269 197.708 56.7654C197.507 57.2039 197.392 57.696 197.37 58.2017C197.37 59.1323 197.888 59.5059 198.523 59.0406C198.859 58.7647 199.138 58.3923 199.339 57.9537C199.539 57.5151 199.655 57.0228 199.676 56.5169C199.693 55.5864 199.136 55.2128 198.523 55.678Z" fill="#37474F"/>
<path d="M198.523 57.7558C198.479 57.7558 198.436 57.7449 198.395 57.7237C198.354 57.7024 198.318 57.6712 198.287 57.632C198.255 57.5927 198.231 57.5461 198.214 57.4947C198.197 57.4434 198.189 57.3884 198.189 57.3329V42.7899C198.189 42.6777 198.224 42.5701 198.287 42.4908C198.349 42.4115 198.434 42.3669 198.523 42.3669C198.612 42.3669 198.697 42.4115 198.759 42.4908C198.822 42.5701 198.857 42.6777 198.857 42.7899V57.3329C198.857 57.4451 198.822 57.5526 198.759 57.632C198.697 57.7113 198.612 57.7558 198.523 57.7558V57.7558Z" fill="#263238"/>
<path d="M198.824 43.1714V46.964L202.038 42.7908L198.824 43.1714Z" fill="#37474F"/>
<path d="M29.8072 168.977C29.5286 169.168 24.414 171 22.5197 167.835C20.6254 164.67 23.7733 159.735 21.996 157.917C20.2187 156.098 15.2378 157.917 14.0399 154.096C12.842 150.275 16.3911 148.626 14.3965 144.769C13.1373 142.337 9.61615 140.998 9.77772 138.735C10.0117 135.429 14.8255 134.506 19.0264 138.08C23.2273 141.654 25.1884 138.721 26.52 138.481C27.8516 138.242 30.7265 138.77 30.6374 144.692C30.5482 150.613 29.8072 168.977 29.8072 168.977Z" fill="#01D2FF"/>
<path d="M30.1471 160.579C30.0806 160.579 30.0163 160.549 29.9654 160.495C29.9145 160.441 29.8802 160.366 29.8685 160.283C28.4032 149.004 18.0792 139.889 12.7083 137.93C12.6728 137.917 12.6396 137.896 12.6106 137.868C12.5817 137.839 12.5577 137.803 12.54 137.762C12.5223 137.721 12.5113 137.676 12.5077 137.63C12.5041 137.584 12.5079 137.537 12.5189 137.493C12.5396 137.403 12.5876 137.327 12.6524 137.282C12.7172 137.237 12.7934 137.227 12.8643 137.253C18.3522 139.262 28.9158 148.631 30.4201 160.171C30.4314 160.262 30.4137 160.356 30.371 160.431C30.3282 160.506 30.2638 160.557 30.1917 160.572L30.1471 160.579Z" fill="white"/>
<path d="M17.9678 151.142C17.9066 151.142 17.8468 151.118 17.7978 151.071C17.7488 151.024 17.7133 150.959 17.6968 150.884C17.6803 150.809 17.6837 150.73 17.7065 150.658C17.7293 150.586 17.7703 150.526 17.823 150.486C17.9901 150.359 21.9682 147.42 25.8793 148.794C25.9532 148.818 26.0164 148.879 26.0551 148.962C26.0938 149.045 26.1047 149.145 26.0855 149.238C26.0663 149.332 26.0185 149.412 25.9527 149.461C25.8868 149.51 25.8084 149.523 25.7345 149.499C22.0461 148.202 18.1461 151.085 18.1071 151.113C18.0638 151.14 18.0154 151.149 17.9678 151.142V151.142Z" fill="white"/>
<path d="M175.457 109.416C177.652 109.797 181.391 108.189 181.658 103.565C181.926 98.9406 183.435 97.6858 186.204 96.9315C188.974 96.1772 189.787 94.9577 190.105 92.7583C190.422 90.5588 188.316 87.9294 188.907 84.6162C189.497 81.303 191.47 81.31 193.408 77.5668C194.651 75.1558 192.105 71.476 187.865 73.0551C183.625 74.6342 183.965 78.0955 179.725 78.5396C175.485 78.9837 172.827 82.2405 172.744 86.2939C172.66 90.3474 175.457 109.416 175.457 109.416Z" fill="#01D2FF"/>
<path opacity="0.2" d="M175.457 109.416C177.652 109.797 181.391 108.189 181.658 103.565C181.926 98.9406 183.435 97.6858 186.204 96.9315C188.974 96.1772 189.787 94.9577 190.105 92.7583C190.422 90.5588 188.316 87.9294 188.907 84.6162C189.497 81.303 191.47 81.31 193.408 77.5668C194.651 75.1558 192.105 71.476 187.865 73.0551C183.625 74.6342 183.965 78.0955 179.725 78.5396C175.485 78.9837 172.827 82.2405 172.744 86.2939C172.66 90.3474 175.457 109.416 175.457 109.416Z" fill="black"/>
<path d="M174.655 100.547H174.621C174.586 100.538 174.551 100.52 174.521 100.494C174.491 100.468 174.465 100.435 174.445 100.396C174.424 100.358 174.41 100.315 174.404 100.269C174.397 100.224 174.397 100.177 174.404 100.132C176.454 87.3086 187.636 75.5713 190.361 74.3729C190.435 74.3421 190.515 74.3496 190.585 74.3939C190.654 74.4382 190.707 74.5156 190.731 74.6091C190.756 74.7026 190.75 74.8045 190.715 74.8924C190.68 74.9803 190.619 75.047 190.545 75.0779C187.881 76.2481 176.956 87.7669 174.945 100.308C174.924 100.383 174.884 100.447 174.832 100.49C174.779 100.533 174.717 100.553 174.655 100.547V100.547Z" fill="white"/>
<path d="M27.4673 96.0012C27.4945 95.3655 27.6399 94.7469 27.8916 94.1957C28.1433 93.6445 28.4942 93.1762 28.9159 92.8289L102.966 38.7316C103.415 38.4464 103.91 38.2979 104.412 38.2979C104.914 38.2979 105.409 38.4464 105.858 38.7316L107.491 39.93C107.913 40.276 108.265 40.744 108.517 41.2955C108.768 41.847 108.913 42.4662 108.939 43.1022V114.922C108.911 115.557 108.765 116.175 108.513 116.726C108.262 117.277 107.911 117.746 107.491 118.094L33.4399 172.184C32.9911 172.473 32.4948 172.623 31.9913 172.623C31.4879 172.623 30.9916 172.473 30.5427 172.184L28.9159 170.993C28.4948 170.645 28.1444 170.176 27.8927 169.625C27.6411 169.074 27.4954 168.456 27.4673 167.821V96.0012Z" fill="#01D2FF"/>
<path opacity="0.3" d="M27.4673 96.0012C27.4945 95.3655 27.6399 94.7469 27.8916 94.1957C28.1433 93.6445 28.4942 93.1762 28.9159 92.8289L102.966 38.7316C103.415 38.4464 103.91 38.2979 104.412 38.2979C104.914 38.2979 105.409 38.4464 105.858 38.7316L107.491 39.93C107.913 40.276 108.265 40.744 108.517 41.2955C108.768 41.847 108.913 42.4662 108.939 43.1022V114.922C108.911 115.557 108.765 116.175 108.513 116.726C108.262 117.277 107.911 117.746 107.491 118.094L33.4399 172.184C32.9911 172.473 32.4948 172.623 31.9913 172.623C31.4879 172.623 30.9916 172.473 30.5427 172.184L28.9159 170.993C28.4948 170.645 28.1444 170.176 27.8927 169.625C27.6411 169.074 27.4954 168.456 27.4673 167.821V96.0012Z" fill="black"/>
<path d="M34.2534 98.8487L27.8907 94.196C27.6306 94.7423 27.4849 95.3634 27.4673 96.0007V167.82C27.4954 168.456 27.6411 169.074 27.8927 169.625C28.1444 170.176 28.4948 170.644 28.9159 170.993L30.5427 172.184C30.9916 172.472 31.4879 172.623 31.9913 172.623C32.4948 172.623 32.9911 172.472 33.4399 172.184L34.2534 171.592V98.8487Z" fill="#01D2FF"/>
<path opacity="0.5" d="M34.2534 98.8487L27.8907 94.196C27.6306 94.7423 27.4849 95.3634 27.4673 96.0007V167.82C27.4954 168.456 27.6411 169.074 27.8927 169.625C28.1444 170.176 28.4948 170.644 28.9159 170.993L30.5427 172.184C30.9916 172.472 31.4879 172.623 31.9913 172.623C32.4948 172.623 32.9911 172.472 33.4399 172.184L34.2534 171.592V98.8487Z" fill="black"/>
<path d="M108.939 43.1018V114.921C108.92 115.579 108.765 116.218 108.488 116.775C108.274 117.244 107.985 117.652 107.641 117.974L107.585 118.016L107.49 118.094L33.4398 172.184C33.2981 172.31 33.1334 172.39 32.961 172.414C32.7886 172.439 32.6141 172.408 32.4536 172.325C32.2994 172.202 32.1747 172.028 32.0932 171.822C32.0117 171.615 31.9764 171.385 31.9912 171.155V99.3069C31.9786 99.0497 32.0155 98.7926 32.0987 98.5574C32.1819 98.3223 32.3089 98.1161 32.4688 97.9567C32.6288 97.7973 32.8169 97.6894 33.0171 97.6421C33.2172 97.5949 33.4235 97.6098 33.6181 97.6855L64.7571 107.054L68.8355 108.281C69.3168 108.395 69.8137 108.34 70.2723 108.123C70.7309 107.905 71.1338 107.533 71.4373 107.047L76.162 98.7218L107.964 42.6999C108.499 41.7553 108.939 41.9316 108.939 43.1018Z" fill="#01D2FF"/>
<path opacity="0.2" d="M108.939 43.1018V114.921C108.92 115.579 108.765 116.218 108.488 116.775C108.274 117.244 107.985 117.652 107.641 117.974L107.585 118.016L107.49 118.094L33.4398 172.184C33.2981 172.31 33.1334 172.39 32.961 172.414C32.7886 172.439 32.6141 172.408 32.4536 172.325C32.2994 172.202 32.1747 172.028 32.0932 171.822C32.0117 171.615 31.9764 171.385 31.9912 171.155V99.3069C31.9786 99.0497 32.0155 98.7926 32.0987 98.5574C32.1819 98.3223 32.3089 98.1161 32.4688 97.9567C32.6288 97.7973 32.8169 97.6894 33.0171 97.6421C33.2172 97.5949 33.4235 97.6098 33.6181 97.6855L64.7571 107.054L68.8355 108.281C69.3168 108.395 69.8137 108.34 70.2723 108.123C70.7309 107.905 71.1338 107.533 71.4373 107.047L76.162 98.7218L107.964 42.6999C108.499 41.7553 108.939 41.9316 108.939 43.1018Z" fill="black"/>
<path d="M107.49 118.093L107.585 118.016L107.641 117.973C107.985 117.652 108.274 117.244 108.488 116.775C108.762 116.227 108.917 115.597 108.939 114.949L76.162 98.7354L98.1136 124.959L107.49 118.093Z" fill="#01D2FF"/>
<path opacity="0.6" d="M107.49 118.093L107.585 118.016L107.641 117.973C107.985 117.652 108.274 117.244 108.488 116.775C108.762 116.227 108.917 115.597 108.939 114.949L76.162 98.7354L98.1136 124.959L107.49 118.093Z" fill="black"/>
<path d="M31.9914 171.155C31.9701 171.39 32.0011 171.627 32.0809 171.84C32.1606 172.053 32.286 172.233 32.4427 172.361C32.6032 172.444 32.7777 172.475 32.9501 172.45C33.1224 172.426 33.2871 172.347 33.4288 172.22L58.9351 153.532L64.7573 107.006L31.9914 169.936V171.155Z" fill="#01D2FF"/>
<path opacity="0.6" d="M31.9914 171.155C31.9701 171.39 32.0011 171.627 32.0809 171.84C32.1606 172.053 32.286 172.233 32.4427 172.361C32.6032 172.444 32.7777 172.475 32.9501 172.45C33.1224 172.426 33.2871 172.347 33.4288 172.22L58.9351 153.532L64.7573 107.006L31.9914 169.936V171.155Z" fill="black"/>
<path d="M108.488 116.775C108.274 117.244 107.985 117.652 107.641 117.974L107.585 118.016L33.4398 172.184C33.298 172.31 33.1334 172.39 32.961 172.414C32.7886 172.439 32.6141 172.408 32.4536 172.325L67.9161 100.695C68.6289 99.2607 69.7262 98.1989 71.0073 97.7043C72.2883 97.2098 73.6673 97.3157 74.8916 98.0026L108.488 116.775Z" fill="#01D2FF"/>
<path opacity="0.2" d="M108.488 116.775C108.274 117.244 107.985 117.652 107.641 117.974L107.585 118.016L33.4398 172.184C33.298 172.31 33.1334 172.39 32.961 172.414C32.7886 172.439 32.6141 172.408 32.4536 172.325L67.9161 100.695C68.6289 99.2607 69.7262 98.1989 71.0073 97.7043C72.2883 97.2098 73.6673 97.3157 74.8916 98.0026L108.488 116.775Z" fill="black"/>
<path d="M31.9913 97.1921L66.0498 116.226C67.2761 116.911 68.6564 117.013 69.9377 116.515C71.2189 116.016 72.3151 114.95 73.0253 113.512L108.789 41.0928L31.9913 97.1921Z" fill="#01D2FF"/>
<path opacity="0.6" d="M31.9913 97.1921L66.0498 116.226C67.2761 116.911 68.6564 117.013 69.9377 116.515C71.2189 116.016 72.3151 114.95 73.0253 113.512L108.789 41.0928L31.9913 97.1921Z" fill="black"/>
<path d="M31.9913 97.1921L66.2894 113.406C67.4747 113.966 68.7752 113.999 69.9772 113.499C71.1792 112.999 72.2109 111.997 72.9028 110.657L108.789 41.0928L31.9913 97.1921Z" fill="#01D2FF"/>
<path opacity="0.2" d="M31.9913 97.1921L66.2894 113.406C67.4747 113.966 68.7752 113.999 69.9772 113.499C71.1792 112.999 72.2109 111.997 72.9028 110.657L108.789 41.0928L31.9913 97.1921Z" fill="black"/>
<path d="M40.1145 104.847C40.1404 104.211 40.2852 103.591 40.537 103.04C40.7888 102.488 41.1405 102.02 41.5631 101.674L115.614 47.5771C116.063 47.2886 116.559 47.1382 117.062 47.1382C117.566 47.1382 118.062 47.2886 118.511 47.5771L120.143 48.7685C120.564 49.1165 120.914 49.5852 121.165 50.1363C121.415 50.6875 121.56 51.3057 121.586 51.9407V123.76C121.559 124.395 121.414 125.013 121.163 125.564C120.913 126.115 120.563 126.584 120.143 126.933L46.0871 181.023C45.6385 181.308 45.1434 181.457 44.6413 181.457C44.1393 181.457 43.6442 181.308 43.1955 181.023L41.5631 179.831C41.1424 179.483 40.7921 179.014 40.5405 178.463C40.2889 177.912 40.143 177.294 40.1145 176.659V104.847Z" fill="#455A64"/>
<path d="M40.1145 104.847C40.1404 104.211 40.2852 103.591 40.537 103.04C40.7888 102.488 41.1405 102.02 41.5631 101.674L115.614 47.5771C116.063 47.2886 116.559 47.1382 117.062 47.1382C117.566 47.1382 118.062 47.2886 118.511 47.5771L120.143 48.7685C120.564 49.1165 120.914 49.5852 121.165 50.1363C121.415 50.6875 121.56 51.3057 121.586 51.9407V123.76C121.559 124.395 121.414 125.013 121.163 125.564C120.913 126.115 120.563 126.584 120.143 126.933L46.0871 181.023C45.6385 181.308 45.1434 181.457 44.6413 181.457C44.1393 181.457 43.6442 181.308 43.1955 181.023L41.5631 179.831C41.1424 179.483 40.7921 179.014 40.5405 178.463C40.2889 177.912 40.143 177.294 40.1145 176.659V104.847Z" fill="#455A64"/>
<path d="M46.9061 107.71L40.5379 103.064C40.2771 103.61 40.1313 104.231 40.1145 104.869V176.667C40.143 177.303 40.2889 177.921 40.5405 178.471C40.7921 179.022 41.1424 179.491 41.5631 179.84L43.1955 181.031C43.6442 181.316 44.1393 181.465 44.6413 181.465C45.1434 181.465 45.6385 181.316 46.0871 181.031L46.9061 180.432V107.71Z" fill="#263238"/>
<path d="M121.592 51.9423V123.762C121.573 124.419 121.417 125.059 121.141 125.616C120.927 126.085 120.638 126.493 120.294 126.814L120.238 126.857L120.143 126.934L46.0927 181.024C45.9509 181.151 45.7863 181.23 45.6139 181.255C45.4415 181.28 45.267 181.249 45.1065 181.165C44.9498 181.038 44.8244 180.857 44.7447 180.644C44.6649 180.431 44.6339 180.194 44.6552 179.96V108.147C44.6426 107.89 44.6795 107.633 44.7627 107.398C44.8459 107.163 44.9729 106.957 45.1328 106.797C45.2928 106.638 45.4809 106.53 45.6811 106.483C45.8812 106.435 46.0875 106.45 46.2821 106.526L77.4211 115.895L81.4994 117.121C81.9808 117.235 82.4777 117.181 82.9363 116.963C83.3949 116.746 83.7978 116.374 84.1013 115.888L88.8204 107.562L120.622 51.5405C121.135 50.61 121.592 50.7721 121.592 51.9423Z" fill="#37474F"/>
<path d="M120.143 126.933L120.238 126.855L120.294 126.813C120.638 126.492 120.927 126.084 121.141 125.615C121.411 125.067 121.565 124.441 121.586 123.796L88.8148 107.582L110.761 133.792L120.143 126.933Z" fill="#263238"/>
<path d="M44.6442 179.967C44.6229 180.201 44.6539 180.438 44.7337 180.651C44.8134 180.864 44.9388 181.045 45.0955 181.172C45.256 181.256 45.4305 181.287 45.6029 181.262C45.7752 181.237 45.9399 181.158 46.0816 181.031V181.031L71.5768 162.407L77.399 115.881L44.6331 178.762L44.6442 179.967Z" fill="#263238"/>
<path d="M121.135 125.616C120.921 126.085 120.633 126.493 120.288 126.814L120.233 126.857L46.0928 181.024C45.9511 181.151 45.7864 181.23 45.6141 181.255C45.4417 181.28 45.2672 181.249 45.1067 181.165L80.5636 109.543C81.2747 108.106 82.3713 107.041 83.6525 106.544C84.9336 106.047 86.3135 106.151 87.5391 106.836L121.135 125.616Z" fill="#37474F"/>
<path d="M44.644 106.038L78.7025 125.072C79.9281 125.755 81.3072 125.856 82.5872 125.358C83.8672 124.859 84.9625 123.794 85.6725 122.358L121.436 49.9036L44.644 106.038Z" fill="#263238"/>
<path d="M44.644 106.038L78.9365 122.252C80.1225 122.814 81.4243 122.847 82.6275 122.348C83.8307 121.848 84.8634 120.844 85.5555 119.503L121.436 49.9036L44.644 106.038Z" fill="#37474F"/>
<path d="M94.4309 161.857V90.0373C94.4826 88.6747 94.8191 87.3538 95.4059 86.2094L130.724 23.9841C131.368 22.8473 132.265 21.9788 133.301 21.4892C134.337 20.9996 135.464 20.9111 136.54 21.2348L169.752 31.2239C170.822 31.5843 171.855 32.1049 172.827 32.7747L174.46 33.9661C174.879 34.3154 175.229 34.7843 175.479 35.3352C175.73 35.8861 175.875 36.5037 175.903 37.1383V108.958C175.874 109.592 175.729 110.209 175.478 110.76C175.228 111.311 174.879 111.78 174.46 112.13L100.404 166.22C99.9553 166.507 99.46 166.657 98.9577 166.657C98.4554 166.657 97.9602 166.507 97.5119 166.22L95.8795 165.029C95.4585 164.681 95.108 164.212 94.8564 163.661C94.6047 163.11 94.459 162.492 94.4309 161.857V161.857Z" fill="#01D2FF"/>
<path opacity="0.3" d="M94.4309 161.857V90.0373C94.4826 88.6747 94.8191 87.3538 95.4059 86.2094L130.724 23.9841C131.368 22.8473 132.265 21.9788 133.301 21.4892C134.337 20.9996 135.464 20.9111 136.54 21.2348L169.752 31.2239C170.822 31.5843 171.855 32.1049 172.827 32.7747L174.46 33.9661C174.879 34.3154 175.229 34.7843 175.479 35.3352C175.73 35.8861 175.875 36.5037 175.903 37.1383V108.958C175.874 109.592 175.729 110.209 175.478 110.76C175.228 111.311 174.879 111.78 174.46 112.13L100.404 166.22C99.9553 166.507 99.46 166.657 98.9577 166.657C98.4554 166.657 97.9602 166.507 97.5119 166.22L95.8795 165.029C95.4585 164.681 95.108 164.212 94.8564 163.661C94.6047 163.11 94.459 162.492 94.4309 161.857V161.857Z" fill="white"/>
<path d="M101.217 55.3264V146.969C101.217 148.132 101.869 148.612 102.666 148.026L172.192 97.2705C172.614 96.9236 172.965 96.4554 173.217 95.9041C173.469 95.3528 173.614 94.7341 173.641 94.0983V2.45566C173.641 1.28545 172.995 0.813139 172.192 1.39824L102.666 52.1541C102.244 52.5015 101.893 52.9697 101.641 53.5209C101.39 54.0722 101.244 54.6907 101.217 55.3264V55.3264Z" fill="#FAFAFA"/>
<path d="M102.019 148.639C101.84 148.641 101.663 148.582 101.507 148.47C101.316 148.309 101.163 148.085 101.065 147.824C100.967 147.562 100.927 147.271 100.95 146.982V55.3396C100.976 54.6411 101.134 53.9607 101.41 53.355C101.686 52.7493 102.073 52.2358 102.537 51.8572L172.064 1.10127C172.245 0.914229 172.468 0.801491 172.701 0.778026C172.934 0.754561 173.168 0.82148 173.37 0.969896C173.573 1.11831 173.735 1.3412 173.835 1.60894C173.935 1.87668 173.968 2.1766 173.93 2.46886V94.1115C173.904 94.8091 173.747 95.4888 173.47 96.0934C173.194 96.6981 172.807 97.2102 172.343 97.5868L102.816 148.343C102.576 148.529 102.301 148.631 102.019 148.639ZM172.838 1.46079C172.658 1.47381 172.484 1.54413 172.331 1.66522L102.805 52.4564C102.426 52.7742 102.111 53.1987 101.884 53.6965C101.657 54.1942 101.524 54.7518 101.496 55.3255V146.968C101.462 147.133 101.472 147.308 101.525 147.465C101.577 147.623 101.668 147.754 101.785 147.839C101.902 147.925 102.037 147.96 102.171 147.938C102.305 147.917 102.43 147.841 102.526 147.722L172.053 96.9665C172.432 96.649 172.747 96.2247 172.974 95.7268C173.201 95.2289 173.334 94.6712 173.362 94.0974V2.45476C173.378 2.28944 173.36 2.12177 173.31 1.96759C173.261 1.81341 173.181 1.67781 173.078 1.57358C173.008 1.50923 172.925 1.47024 172.838 1.46079Z" fill="#E0E0E0"/>
<path d="M99.7184 91.7851L94.7041 88.1194C94.5417 88.7387 94.4516 89.3846 94.4366 90.0368V161.856C94.4647 162.492 94.6105 163.11 94.8621 163.661C95.1137 164.212 95.4642 164.681 95.8852 165.029L97.5121 166.22C97.96 166.508 98.4554 166.659 98.9579 166.659C99.4604 166.659 99.9559 166.508 100.404 166.22L101.1 165.72L99.7184 91.7851Z" fill="#01D2FF"/>
<g opacity="0.1">
<path opacity="0.1" d="M99.7184 91.7851L94.7041 88.1194C94.5417 88.7387 94.4516 89.3846 94.4366 90.0368V161.856C94.4647 162.492 94.6105 163.11 94.8621 163.661C95.1137 164.212 95.4642 164.681 95.8852 165.029L97.5121 166.22C97.96 166.508 98.4554 166.659 98.9579 166.659C99.4604 166.659 99.9559 166.508 100.404 166.22L101.1 165.72L99.7184 91.7851Z" fill="black"/>
</g>
<path d="M175.908 37.1381V108.958C175.89 109.615 175.734 110.255 175.457 110.812C175.243 111.281 174.955 111.689 174.61 112.01L174.555 112.052L174.46 112.13L100.409 166.22C100.267 166.347 100.103 166.426 99.9304 166.451C99.758 166.475 99.5835 166.445 99.423 166.361C99.2663 166.234 99.141 166.053 99.0612 165.84C98.9814 165.627 98.9505 165.39 98.9717 165.156V93.3432C98.9591 93.0861 98.996 92.8289 99.0792 92.5938C99.1624 92.3586 99.2894 92.1525 99.4493 91.9931C99.6093 91.8337 99.7974 91.7257 99.9976 91.6785C100.198 91.6312 100.404 91.6461 100.599 91.7218L131.721 101.091L135.799 102.317C136.281 102.433 136.779 102.379 137.239 102.161C137.699 101.944 138.103 101.571 138.407 101.083L143.131 92.7581L174.933 36.7363C175.468 35.8058 175.908 35.9679 175.908 37.1381Z" fill="#01D2FF"/>
<path opacity="0.3" d="M175.908 37.1381V108.958C175.89 109.615 175.734 110.255 175.457 110.812C175.243 111.281 174.955 111.689 174.61 112.01L174.555 112.052L174.46 112.13L100.409 166.22C100.267 166.347 100.103 166.426 99.9304 166.451C99.758 166.475 99.5835 166.445 99.423 166.361C99.2663 166.234 99.141 166.053 99.0612 165.84C98.9814 165.627 98.9505 165.39 98.9717 165.156V93.3432C98.9591 93.0861 98.996 92.8289 99.0792 92.5938C99.1624 92.3586 99.2894 92.1525 99.4493 91.9931C99.6093 91.8337 99.7974 91.7257 99.9976 91.6785C100.198 91.6312 100.404 91.6461 100.599 91.7218L131.721 101.091L135.799 102.317C136.281 102.433 136.779 102.379 137.239 102.161C137.699 101.944 138.103 101.571 138.407 101.083L143.131 92.7581L174.933 36.7363C175.468 35.8058 175.908 35.9679 175.908 37.1381Z" fill="white"/>
<path d="M174.46 112.129L174.554 112.052L174.61 112.01C174.955 111.688 175.243 111.28 175.457 110.811C175.728 110.262 175.881 109.633 175.903 108.985L143.131 92.7717L165.077 118.989L174.46 112.129Z" fill="#01D2FF"/>
<path d="M98.9606 165.162C98.9393 165.397 98.9703 165.634 99.0501 165.847C99.1298 166.06 99.2552 166.24 99.4119 166.368C99.5724 166.451 99.7469 166.482 99.9193 166.457C100.092 166.433 100.256 166.353 100.398 166.227V166.227L125.893 147.602L131.715 101.076L98.9495 163.957L98.9606 165.162Z" fill="#01D2FF"/>
<path d="M175.457 110.81C175.243 111.28 174.955 111.688 174.61 112.009L174.554 112.051L100.409 166.219C100.267 166.346 100.103 166.425 99.9303 166.45C99.758 166.474 99.5834 166.443 99.423 166.36L134.88 94.7378C135.591 93.3022 136.686 92.2386 137.966 91.7415C139.246 91.2444 140.625 91.3471 141.85 92.0308L175.457 110.81Z" fill="#01D2FF"/>
<path opacity="0.3" d="M175.457 110.81C175.243 111.28 174.955 111.688 174.61 112.009L174.554 112.051L100.409 166.219C100.267 166.346 100.103 166.425 99.9303 166.45C99.758 166.474 99.5834 166.443 99.423 166.36L134.88 94.7378C135.591 93.3022 136.686 92.2386 137.966 91.7415C139.246 91.2444 140.625 91.3471 141.85 92.0308L175.457 110.81Z" fill="white"/>
<path d="M131.832 76.4316C131.182 76.5588 130.518 76.4842 129.895 76.214C129.273 75.9438 128.712 75.4862 128.261 74.8807C127.414 73.6893 126.991 71.8494 126.991 69.3751C126.992 66.5832 127.465 63.824 128.378 61.2823C129.315 58.6669 130.609 56.2806 132.2 54.2329C133.911 51.9882 135.861 50.0568 137.994 48.4947C140.086 46.972 141.87 46.1284 143.349 45.9639C144.836 45.7947 145.956 46.2812 146.725 47.4091C147.494 48.537 147.873 50.2641 147.873 52.5763C147.905 54.8694 147.475 57.1353 146.625 59.1605C145.875 60.9945 144.732 62.524 143.326 63.5734C142.841 64.0096 142.246 64.2052 141.655 64.1233C141.444 64.0706 141.25 63.9421 141.096 63.7532C140.942 63.5644 140.834 63.3233 140.786 63.0588C140.322 64.1691 139.732 65.1879 139.036 66.083C138.332 67.0025 137.529 67.7926 136.652 68.4305C135.136 69.5161 133.927 69.8403 133.036 69.4667C132.144 69.0931 131.721 67.9511 131.721 66.0477C131.734 63.6558 132.316 61.3244 133.392 59.3578C134.564 57.1777 136.12 55.3724 137.939 54.0849C138.698 53.5127 139.523 53.0941 140.385 52.8442C141.025 52.6246 141.7 52.6246 142.34 52.8442V60.2672C142.34 60.8664 142.424 61.233 142.585 61.374C142.747 61.515 143.014 61.4445 143.393 61.1695C144.099 60.5886 144.621 59.7131 144.87 58.6952C145.246 57.3202 145.426 55.871 145.399 54.4162C145.399 52.5645 145.079 51.2181 144.441 50.3769C144.099 49.9546 143.683 49.642 143.226 49.4654C142.77 49.2887 142.286 49.2532 141.816 49.3617C140.456 49.6247 139.153 50.239 137.989 51.1664C135.526 52.8953 133.402 55.3049 131.777 58.2158C130.274 60.9476 129.477 64.2003 129.492 67.5281C129.492 69.5537 129.821 71.0317 130.478 71.9622C130.819 72.428 131.246 72.7799 131.72 72.9865C132.195 73.1931 132.702 73.2481 133.197 73.1465C134.584 72.898 135.913 72.2805 137.097 71.3348C137.915 70.7366 138.689 70.0478 139.41 69.2764C140.081 68.5751 140.692 67.7859 141.231 66.9219C141.287 66.8309 141.353 66.7503 141.426 66.6822C141.477 66.647 141.527 66.6822 141.571 66.7668L142.184 68.1767C142.207 68.2326 142.223 68.2918 142.234 68.3529C142.215 68.5099 142.154 68.654 142.062 68.7618C141.388 69.7859 140.642 70.7298 139.833 71.5816C138.981 72.4862 138.069 73.2974 137.109 74.0066C135.508 75.2854 133.708 76.1126 131.832 76.4316V76.4316ZM139.075 63.1786C139.606 62.3866 139.915 61.3956 139.956 60.3589V56.0587C139.16 56.1437 138.394 56.478 137.727 57.0315C136.664 57.788 135.759 58.8536 135.086 60.1403C134.455 61.3208 134.116 62.7121 134.111 64.1374C134.111 65.3287 134.345 66.0407 134.819 66.2522C135.292 66.4637 136.022 66.2522 137.019 65.4979C137.827 64.9069 138.533 64.1185 139.098 63.1786H139.075Z" fill="#E0E0E0"/>
<path d="M60.8739 83.4941L55.4417 79.5112H55.4027C53.5474 78.1859 50.9901 78.3833 48.1598 80.4488C42.4713 84.6009 37.8636 94.7027 37.8636 103.007C37.8636 107.159 39.0114 110.056 40.8667 111.466L45.92 115.125L46.8337 113.2C47.87 112.906 48.8655 112.417 49.7866 111.748C55.4695 107.589 60.0827 97.4872 60.0827 89.19C60.0797 88.0686 59.9712 86.9517 59.7596 85.8627L60.8739 83.4941Z" fill="#F28F8F"/>
<path d="M60.8739 83.4941L55.4417 79.5112H55.4027C53.5474 78.1859 50.9901 78.3833 48.1598 80.4488C42.4713 84.6009 37.8636 94.7027 37.8636 103.007C37.8636 107.159 39.0114 110.056 40.8667 111.466L45.92 115.125L46.8337 113.2C47.87 112.906 48.8655 112.417 49.7866 111.748C55.4695 107.589 60.0827 97.4872 60.0827 89.19C60.0797 88.0686 59.9712 86.9517 59.7596 85.8627L60.8739 83.4941Z" fill="#01D2FF"/>
<path opacity="0.4" d="M60.8739 83.4941L55.4417 79.5112H55.4027C53.5474 78.1859 50.9901 78.3833 48.1598 80.4488C42.4713 84.6009 37.8636 94.7027 37.8636 103.007C37.8636 107.159 39.0114 110.056 40.8667 111.466L45.92 115.125L46.8337 113.2C47.87 112.906 48.8655 112.417 49.7866 111.748C55.4695 107.589 60.0827 97.4872 60.0827 89.19C60.0797 88.0686 59.9712 86.9517 59.7596 85.8627L60.8739 83.4941Z" fill="black"/>
<path d="M53.3803 84.2355C47.6918 88.3946 43.0842 98.4965 43.0842 106.794C43.0842 115.091 47.6918 118.467 53.3803 114.315C59.0688 110.163 63.6764 100.061 63.6764 91.7572C63.6764 83.453 59.0688 80.0834 53.3803 84.2355Z" fill="#01D2FF"/>
<path d="M49.3576 108.781C49.2518 108.781 49.196 108.703 49.196 108.583C49.207 108.451 49.2372 108.322 49.2852 108.203L49.8033 106.729C49.8376 106.585 49.9056 106.457 49.9983 106.363C50.0755 106.319 50.1589 106.295 50.2435 106.292C50.7071 106.258 51.1646 106.141 51.6029 105.947C52.1857 105.699 52.746 105.372 53.2744 104.974C54.0964 104.411 54.8173 103.638 55.3915 102.704C55.8222 101.998 56.0624 101.136 56.0768 100.244C56.0768 98.6861 55.3247 98.4605 53.8204 99.5391L52.3551 100.66C52.1155 100.829 51.9484 100.893 51.8481 100.836C51.7478 100.78 51.6976 100.611 51.6976 100.329V99.7435C51.6897 99.4946 51.7422 99.2486 51.8481 99.0386C51.9822 98.8094 52.1555 98.6214 52.3551 98.4887L53.8092 97.4242C54.3919 97.0231 54.8861 96.4439 55.2467 95.7394C55.5489 95.1483 55.7148 94.4624 55.7258 93.7585C55.7258 92.25 54.8864 92.109 53.2075 93.3356C52.175 94.08 51.2454 95.0324 50.4552 96.1553C50.381 96.2614 50.2989 96.3581 50.2101 96.4444C50.1773 96.464 50.1402 96.4692 50.1048 96.459C50.0695 96.4487 50.0378 96.4237 50.0151 96.388L49.5192 95.683C49.4915 95.6506 49.4694 95.6113 49.454 95.5677C49.4387 95.5241 49.4306 95.477 49.4301 95.4293C49.4413 95.2675 49.4964 95.1156 49.5861 94.9992C50.0796 94.2182 50.6402 93.5089 51.2575 92.8844C51.9763 92.1433 52.7422 91.4784 53.5474 90.8965C54.2743 90.3241 55.0762 89.9206 55.9153 89.7051C56.1793 89.6237 56.4542 89.6162 56.7208 89.6832C56.9873 89.7501 57.2391 89.8899 57.4586 90.0928C57.6564 90.3342 57.8091 90.6285 57.9055 90.9541C58.0019 91.2798 58.0396 91.6286 58.0157 91.975C58.0031 92.7512 57.8667 93.5161 57.6146 94.2238C57.3453 95.0407 56.9685 95.7939 56.5003 96.4514C56.7407 96.3494 56.9977 96.3263 57.2472 96.3843C57.4967 96.4422 57.7304 96.5793 57.9266 96.7827C58.0982 97.0356 58.2285 97.329 58.3098 97.6461C58.3911 97.9632 58.4218 98.2975 58.4001 98.6297C58.3576 100.192 57.9245 101.698 57.1633 102.93C56.2288 104.516 55.0355 105.828 53.6644 106.779C51.7032 108.231 50.2676 108.898 49.3576 108.781Z" fill="white"/>
<path d="M146.764 184.458C145.248 182.23 146.597 178.529 148.068 173.729C149.683 168.449 152.179 159.475 152.179 159.475L169.902 154.843C169.902 154.843 188.784 154.385 190.517 158.953C191.921 162.612 179.485 168.117 177.702 168.315L166.788 169.041L165.64 169.746L157.974 182.019L146.764 184.458Z" fill="#01D2FF"/>
<path d="M179.419 162.697C178.042 164.468 176.76 166.352 175.58 168.336C172.387 173.976 167.334 184.219 167.334 184.219C167.334 184.219 168.12 187.461 170.532 187.32C170.532 187.32 187.135 167.702 188.494 165.89C190.55 163.141 192.2 158.608 188.645 158.235C185.09 157.861 180.8 160.808 179.419 162.697Z" fill="#01D2FF"/>
<path d="M175.491 168.448C175.491 168.448 178.455 162.964 181.525 160.694C181.525 160.694 178.471 161.455 173.847 168.575L175.491 168.448Z" fill="#01D2FF"/>
<path opacity="0.1" d="M175.491 168.448C175.491 168.448 178.455 162.964 181.525 160.694C181.525 160.694 178.471 161.455 173.847 168.575L175.491 168.448Z" fill="black"/>
<path d="M177.507 175.384L176.343 175.666L177.424 180.721C177.424 180.721 178.471 180.594 178.833 180.622C179.361 180.464 179.869 180.215 180.343 179.882L180.065 176.794L178.783 175.102L177.507 175.384Z" fill="#FFA8A7"/>
<path d="M186.7 176.577C187.256 176.861 187.76 177.286 188.18 177.827C188.6 178.368 188.927 179.013 189.141 179.721C189.389 180.462 189.592 181.225 189.748 182.005C189.932 182.823 189.843 184.212 189.024 184.437C188.757 184.477 188.488 184.415 188.249 184.261C186.606 183.457 185.001 182.527 183.319 181.85C181.877 181.174 180.367 180.759 178.833 180.616C179.182 179.938 179.356 179.139 179.332 178.33C179.308 177.521 179.087 176.742 178.7 176.098C178.37 175.712 177.953 175.465 177.507 175.393C177.931 175.153 178.326 174.843 178.733 174.554C179.491 173.884 180.418 173.595 181.335 173.743C182.037 173.934 182.572 174.638 183.168 175.153C184.305 176.091 185.402 176.027 186.7 176.577Z" fill="#263238"/>
<path d="M149.154 179.615C150.619 179.044 152.959 178.536 159.901 178.085C166.843 177.634 176.343 175.66 176.343 175.66C177.959 177.627 177.424 180.714 177.424 180.714C177.424 180.714 165.094 185.649 161.077 186.305C154.681 187.348 152.475 187.27 149.589 186.488C146.346 185.607 144.301 181.497 149.154 179.615Z" fill="#01D2FF"/>
<path d="M174.526 137.775L179.741 153.544L176.008 156.449L168.832 141.074L174.526 137.775Z" fill="#F28F8F"/>
<path d="M163.74 122.915C166.593 122.957 169.729 124.269 170.81 127.095L175.267 138.727C175.267 138.727 172.749 143.394 168.749 143.062L163.74 122.915Z" fill="#E0E0E0"/>
<path d="M144.775 147.426C144.808 146.813 145.505 143.817 146.251 140.588L151.667 142.956L150.213 148.758L145.65 154.236C144.661 152.2 144.347 149.753 144.775 147.426Z" fill="#FFA8A7"/>
<path d="M157.907 123.134C154.508 124.17 149.878 125.516 148.536 130.183C147.193 134.85 145.271 143.091 145.271 143.091C146.017 144.726 150.112 146.079 151.533 145.135L152.202 142.315V159.459C154.859 163.118 167.969 162.18 169.924 154.828V131.473C169.924 127.737 168.286 123.246 163.757 122.915L157.907 123.134Z" fill="#FAFAFA"/>
<path d="M152.185 142.329L153.89 135.54L152.185 145.367V142.329Z" fill="#E0E0E0"/>
<path d="M156.615 104.023C156.312 103.973 156.004 104.011 155.715 104.133C155.426 104.255 155.162 104.458 154.943 104.728C154.224 105.658 154.386 107.378 154.943 111.326L157.172 111.643L156.615 104.023Z" fill="#263238"/>
<path d="M169.546 102.881C170.023 102.884 170.495 102.762 170.933 102.522C171.613 102.028 171.791 103.008 171.418 103.854C171.171 104.464 170.805 104.984 170.354 105.364C169.903 105.744 169.383 105.972 168.844 106.026C168.844 105.906 168.208 103.833 168.208 103.833L169.546 102.881Z" fill="#263238"/>
<path d="M157.656 111.687C157.327 111.933 156.854 111.137 156.447 110.594C156.287 110.363 156.084 110.187 155.856 110.084C155.628 109.98 155.383 109.951 155.144 110.001C154.904 110.05 154.679 110.176 154.489 110.366C154.299 110.556 154.15 110.804 154.057 111.087C153.383 112.885 154.915 115.275 155.812 116.064C156.063 116.339 156.377 116.506 156.709 116.541C157.04 116.577 157.371 116.479 157.656 116.262L157.89 123.135C158.287 124.236 158.894 125.196 159.657 125.928C160.419 126.66 161.313 127.141 162.258 127.329C165.445 127.872 164.787 124.545 163.74 122.916V120.4C164.538 120.615 165.358 120.667 166.169 120.555C166.581 120.414 167.573 118.898 168.214 117.199C168.933 115.296 170.131 111.912 169.066 106.181C167.919 100.034 162.698 99.8365 159.595 102.325C156.492 104.813 157.656 111.687 157.656 111.687Z" fill="#FFA8A7"/>
<path d="M157.656 112.384C157.489 112.384 156.859 111.065 156.447 110.593C155.89 109.937 156.614 104.023 156.614 104.023C156.614 104.023 156.057 101.774 157.171 100.287C158.286 98.7994 160.47 99.0461 162.063 98.9756C164.016 98.9892 165.949 98.4974 167.746 97.5305C170.008 96.2898 170.175 96.1206 170.454 97.3965C170.732 98.6725 170.844 101.528 169.496 103.452L168.76 104.968C168.76 104.968 168.075 105.673 165.974 106.025C163.874 106.378 160.275 104.918 159.846 104.841C159.233 104.735 159.105 105.482 158.776 107.527C158.464 109.324 158.213 112.37 157.656 112.384Z" fill="#263238"/>
<path d="M156.62 104.482L154.625 103.129C154.691 102.961 154.782 102.811 154.894 102.689C155.006 102.566 155.136 102.473 155.276 102.414C155.417 102.356 155.565 102.334 155.713 102.348C155.86 102.363 156.004 102.415 156.135 102.501C156.401 102.69 156.599 103.001 156.689 103.369C156.779 103.738 156.755 104.136 156.62 104.482V104.482Z" fill="#263238"/>
<path d="M163.735 120.4C163.735 120.4 160.782 119.645 159.751 118.99C159.145 118.587 158.648 117.964 158.325 117.199C158.481 117.966 158.758 118.685 159.138 119.314C159.89 120.534 163.735 121.429 163.735 121.429V120.4Z" fill="#F28F8F"/>
<path d="M163.83 111.545C163.825 111.692 163.787 111.833 163.719 111.953C163.652 112.072 163.558 112.163 163.45 112.215C163.342 112.268 163.224 112.278 163.111 112.247C162.998 112.215 162.894 112.141 162.814 112.036C162.734 111.93 162.679 111.797 162.658 111.653C162.637 111.509 162.65 111.36 162.696 111.225C162.741 111.09 162.817 110.975 162.913 110.894C163.01 110.813 163.123 110.77 163.239 110.77C163.318 110.771 163.396 110.793 163.468 110.833C163.541 110.873 163.606 110.93 163.661 111.003C163.716 111.075 163.759 111.16 163.788 111.253C163.817 111.346 163.831 111.445 163.83 111.545Z" fill="#263238"/>
<path d="M163.206 108.725L161.935 109.607C161.847 109.386 161.829 109.132 161.883 108.895C161.938 108.658 162.062 108.456 162.23 108.33C162.314 108.272 162.407 108.237 162.502 108.225C162.597 108.214 162.694 108.227 162.785 108.264C162.876 108.301 162.96 108.361 163.033 108.44C163.105 108.519 163.164 108.616 163.206 108.725V108.725Z" fill="#263238"/>
<path d="M163.478 116.549L164.833 117.198C164.803 117.312 164.755 117.418 164.692 117.509C164.629 117.599 164.553 117.673 164.467 117.726C164.381 117.778 164.288 117.809 164.193 117.815C164.098 117.821 164.003 117.803 163.913 117.762C163.731 117.671 163.583 117.493 163.502 117.267C163.421 117.041 163.412 116.783 163.478 116.549Z" fill="#F28F8F"/>
<path d="M169.106 109.346L167.952 108.218C168.007 108.12 168.077 108.037 168.157 107.974C168.238 107.911 168.328 107.869 168.422 107.851C168.515 107.834 168.611 107.84 168.703 107.87C168.794 107.9 168.88 107.954 168.955 108.027C169.109 108.181 169.211 108.403 169.239 108.648C169.267 108.894 169.219 109.144 169.106 109.346Z" fill="#263238"/>
<path d="M168.749 111.334C168.745 111.481 168.707 111.622 168.639 111.742C168.572 111.861 168.478 111.952 168.37 112.004C168.261 112.057 168.143 112.068 168.03 112.036C167.917 112.004 167.814 111.93 167.733 111.825C167.653 111.719 167.599 111.586 167.578 111.442C167.557 111.298 167.57 111.149 167.615 111.014C167.66 110.879 167.736 110.764 167.833 110.683C167.929 110.602 168.043 110.559 168.158 110.559C168.238 110.56 168.316 110.582 168.388 110.622C168.46 110.662 168.526 110.72 168.581 110.792C168.636 110.864 168.679 110.949 168.708 111.042C168.737 111.135 168.751 111.234 168.749 111.334V111.334Z" fill="#263238"/>
<path d="M165.963 111.241L165.406 115.697L167.356 115.408L165.963 111.241Z" fill="#F28F8F"/>
<path d="M186.288 161.835L174.281 153.065C174.176 152.989 174.057 152.949 173.936 152.949C173.815 152.949 173.696 152.989 173.591 153.065L152.536 168.447L164.882 177.499L186.288 161.835Z" fill="#37474F"/>
<path d="M164.771 176.181L158.297 171.458L177.229 157.627L183.736 162.329L164.771 176.181Z" fill="#263238"/>
<path d="M161.59 163.041L161.712 163.126L164.882 165.445L170.526 161.321L170.643 161.237L167.351 158.833L161.59 163.041Z" fill="#263238"/>
<path d="M161.712 163.126L164.883 165.445L170.526 161.321L167.351 159.002L161.712 163.126Z" fill="#263238"/>
<path d="M152.536 168.448V168.808C152.534 169.062 152.585 169.313 152.682 169.535C152.78 169.757 152.922 169.944 153.093 170.077L164.281 178.247C164.457 178.376 164.657 178.444 164.86 178.444C165.064 178.444 165.264 178.376 165.439 178.247L185.686 163.443C185.857 163.31 185.999 163.123 186.096 162.901C186.194 162.679 186.244 162.428 186.243 162.174V161.815L164.882 177.5L152.536 168.448Z" fill="#263238"/>
<path d="M164.883 177.498V178.471C165.079 178.469 165.271 178.4 165.44 178.274L185.687 163.47C185.858 163.337 185.999 163.15 186.097 162.928C186.194 162.706 186.245 162.455 186.244 162.201V161.842L164.883 177.498Z" fill="#263238"/>
<path d="M165.211 177.69C165.403 177.782 165.608 177.819 165.812 177.799C166.017 177.778 166.215 177.7 166.392 177.57L186.55 162.843C186.725 162.717 186.875 162.542 186.99 162.332C187.105 162.122 187.181 161.883 187.213 161.631L189.442 144.987C189.447 144.891 189.447 144.794 189.442 144.698C189.441 144.235 189.294 143.791 189.035 143.465L168.086 158.769C167.957 158.863 167.846 158.992 167.762 159.147C167.677 159.302 167.62 159.478 167.596 159.664L165.211 177.69Z" fill="#263238"/>
<path d="M164.883 177.498L165.022 177.597C165.083 177.641 165.147 177.681 165.211 177.717L167.596 159.692C167.62 159.506 167.677 159.329 167.762 159.174C167.847 159.02 167.957 158.891 168.086 158.796L189.035 143.492C188.95 143.391 188.856 143.301 188.757 143.224L167.769 158.528C167.639 158.623 167.528 158.752 167.442 158.906C167.356 159.061 167.299 159.238 167.273 159.424L164.883 177.498Z" fill="#455A64"/>
<path d="M176.56 162.314C176.877 160.923 177.606 159.739 178.594 159.008C179.569 158.303 180.237 158.62 180.093 159.713C179.775 161.105 179.047 162.288 178.059 163.019C177.084 163.759 176.415 163.4 176.56 162.314Z" fill="#37474F"/>
<path d="M150.213 148.745C150.213 148.745 153.829 166.368 155.355 167.63C156.882 168.892 159.723 169.815 161.083 170.45C162.442 171.084 163.061 171.951 162.827 172.191C162.593 172.431 160.632 172.692 159.952 172.995C159.272 173.298 160.152 174.687 161.657 176.16C163.161 177.633 164.442 177.499 164.275 178.479C164.108 179.459 160.754 180.439 157.924 178.338C155.093 176.238 154.235 173.404 152.547 171C150.859 168.596 147.004 158.607 145.65 154.236C145.65 154.236 145.778 146.115 147.878 146.63C149.979 147.145 150.213 148.745 150.213 148.745Z" fill="#FFA8A7"/>
<path d="M167.417 184.456C167.674 185.239 168.559 187.396 170.532 187.276L175.379 181.538L167.417 184.456Z" fill="#01D2FF"/>
<path opacity="0.1" d="M167.417 184.456C167.674 185.239 168.559 187.396 170.532 187.276L175.379 181.538L167.417 184.456Z" fill="black"/>
<path d="M170.343 187.961C170.344 187.987 170.344 188.013 170.343 188.04C170.344 188.013 170.344 187.987 170.343 187.961V187.961Z" fill="#263238"/>
<path d="M168.883 194.552C168.836 192.706 169.077 190.867 169.59 189.138V189.138C169.357 189.345 169.088 189.476 168.806 189.523C168.523 189.57 168.236 189.53 167.969 189.406C166.348 188.793 165.941 185.931 166.197 185.311C165.963 185.571 165.718 185.818 165.479 186.072C164.71 186.724 164.163 187.718 163.946 188.856C163.835 189.752 164.164 190.633 164.325 191.521C164.637 193.213 164.325 194.975 164.275 196.709C164.286 197.466 164.42 198.212 164.669 198.901C164.917 199.59 165.274 200.206 165.718 200.714C166.175 201.277 166.667 201.794 167.189 202.257C167.379 202.528 167.631 202.717 167.909 202.799C168.188 202.88 168.48 202.851 168.744 202.714C169.009 202.577 169.234 202.339 169.387 202.034C169.541 201.729 169.616 201.371 169.601 201.01C169.39 198.81 168.983 196.843 168.883 194.552Z" fill="#263238"/>
<path d="M170.722 186.91C170.571 187.269 170.437 187.615 170.32 187.96C170.46 187.622 170.593 187.269 170.722 186.91Z" fill="#37474F"/>
<path d="M166.186 185.309L166.291 185.191L166.186 185.309Z" fill="#37474F"/>
</svg>
