<svg width="248" height="247" viewBox="0 0 248 247" fill="none" xmlns="http://www.w3.org/2000/svg">
<path d="M107.213 246.86C159.249 246.86 201.432 244.158 201.432 240.824C201.432 237.491 159.249 234.788 107.213 234.788C55.1765 234.788 12.993 237.491 12.993 240.824C12.993 244.158 55.1765 246.86 107.213 246.86Z" fill="#01D2FF"/>
<path opacity="0.8" d="M107.213 246.86C159.249 246.86 201.432 244.158 201.432 240.824C201.432 237.491 159.249 234.788 107.213 234.788C55.1765 234.788 12.993 237.491 12.993 240.824C12.993 244.158 55.1765 246.86 107.213 246.86Z" fill="white"/>
<path d="M178.014 11.3093H83.2767C76.736 11.3093 71.4337 16.7616 71.4337 23.4874V229.154C71.4337 235.88 76.736 241.332 83.2767 241.332H178.014C184.555 241.332 189.857 235.88 189.857 229.154V23.4874C189.857 16.7616 184.555 11.3093 178.014 11.3093Z" fill="#263238"/>
<path d="M184.591 36.5674H76.6938V216.073H184.591V36.5674Z" fill="white" stroke="#263238" stroke-width="1.22683" stroke-miterlimit="10"/>
<path d="M147.183 109.254C156.316 99.8627 156.316 84.6358 147.183 75.2441C138.049 65.8524 123.241 65.8524 114.108 75.2441C104.975 84.6358 104.975 99.8627 114.108 109.254C123.241 118.646 138.049 118.646 147.183 109.254Z" fill="#01D2FF"/>
<path d="M161.35 204.785H99.9471C99.8089 204.785 99.6719 204.758 99.544 204.704C99.4161 204.651 99.2998 204.571 99.2018 204.471C99.1038 204.371 99.026 204.252 98.973 204.121C98.9199 203.989 98.8926 203.849 98.8926 203.707C98.8918 203.564 98.9185 203.423 98.9712 203.291C99.0239 203.159 99.1016 203.039 99.1996 202.938C99.2977 202.837 99.4143 202.757 99.5426 202.703C99.6709 202.649 99.8084 202.622 99.9471 202.622H161.35C161.488 202.622 161.625 202.65 161.753 202.705C161.88 202.76 161.996 202.84 162.093 202.94C162.191 203.041 162.268 203.161 162.32 203.292C162.373 203.424 162.399 203.565 162.398 203.707C162.398 203.993 162.288 204.267 162.091 204.469C161.895 204.671 161.628 204.785 161.35 204.785Z" fill="#01D2FF"/>
<path d="M163.349 129.818H97.9419C96.592 129.818 95.4977 130.943 95.4977 132.331V140.26C95.4977 141.648 96.592 142.773 97.9419 142.773H163.349C164.699 142.773 165.794 141.648 165.794 140.26V132.331C165.794 130.943 164.699 129.818 163.349 129.818Z" fill="#01D2FF"/>
<path d="M163.349 154.048H97.9419C96.592 154.048 95.4977 155.174 95.4977 156.562V164.49C95.4977 165.878 96.592 167.004 97.9419 167.004H163.349C164.699 167.004 165.794 165.878 165.794 164.49V156.562C165.794 155.174 164.699 154.048 163.349 154.048Z" fill="#01D2FF"/>
<path d="M142.29 104.246L135.409 100.172V96.8061C136.405 95.5665 137.127 94.1185 137.524 92.5629C137.761 92.6494 138.01 92.6939 138.261 92.6945C139.115 92.6945 139.657 89.9743 139.749 88.0314C140.742 85.869 139.389 84.603 139.389 84.603C139.389 84.603 139.95 84.0263 140.322 81.7136C140.693 79.4008 139.011 80.366 137.701 78.2476C136.39 76.1291 135.451 73.8226 131.148 73.8226C129.963 73.7825 128.792 74.1102 127.79 74.7629C126.788 75.4157 126 76.3635 125.528 77.4829C124.457 77.4869 123.39 77.6151 122.347 77.8653C121.03 78.2476 120.658 82.6788 121.78 84.4149C122.282 85.3637 122.55 86.4248 122.56 87.5049C122.261 87.1288 121.951 87.0285 121.78 87.8809C121.408 89.8051 122.908 92.5002 122.908 92.5002L123.682 92.2746C124.072 93.937 124.824 95.4866 125.882 96.8061V100.172L119.001 104.246C118.197 104.723 117.529 105.409 117.065 106.235C116.601 107.061 116.356 107.999 116.355 108.953V111.284C120.448 114.535 125.474 116.299 130.645 116.299C135.817 116.299 140.843 114.535 144.936 111.284V108.953C144.936 107.998 144.692 107.061 144.227 106.234C143.763 105.408 143.095 104.722 142.29 104.246Z" fill="#263238"/>
<g style="mix-blend-mode:multiply">
<path d="M184.591 36.8059H76.6938V43.7567H184.591V36.8059Z" fill="#01D2FF"/>
</g>
<path d="M142.376 24.0013H118.909C118.486 24.0013 118.08 23.8283 117.78 23.5203C117.481 23.2124 117.312 22.7947 117.312 22.3592C117.312 21.9236 117.481 21.506 117.78 21.198C118.08 20.89 118.486 20.717 118.909 20.717H142.376C142.799 20.717 143.206 20.89 143.505 21.198C143.805 21.506 143.973 21.9236 143.973 22.3592C143.973 22.7947 143.805 23.2124 143.505 23.5203C143.206 23.8283 142.799 24.0013 142.376 24.0013Z" fill="#01D2FF" stroke="#263238" stroke-width="1.22683" stroke-linecap="round" stroke-linejoin="round"/>
<path d="M137.042 226.214C137.044 224.912 136.669 223.639 135.966 222.555C135.264 221.472 134.264 220.628 133.094 220.129C131.925 219.63 130.637 219.499 129.395 219.753C128.153 220.007 127.012 220.634 126.117 221.554C125.222 222.475 124.612 223.648 124.365 224.925C124.118 226.203 124.246 227.526 124.731 228.729C125.216 229.932 126.037 230.96 127.091 231.682C128.144 232.405 129.382 232.79 130.648 232.789C132.344 232.787 133.969 232.094 135.168 230.861C136.367 229.629 137.041 227.957 137.042 226.214Z" fill="#01D2FF"/>
<path d="M133.891 222.88H127.406V229.548H133.891V222.88Z" fill="#01D2FF" stroke="#263238" stroke-width="1.22683" stroke-linecap="round" stroke-linejoin="round"/>
<path d="M207.899 150.539C207.899 150.539 199.402 128.339 206.966 125.7C214.841 122.948 214.494 137.608 214.189 144.754C213.549 160.022 211.91 162.861 210.685 159.132L207.899 150.539ZM205.345 167.856C207.68 170.99 208.338 167.743 204.126 153.083C202.151 146.189 197.86 132.243 191.277 137.477C184.957 142.491 200 160.667 200 160.667L205.345 167.856ZM200.835 180.579C203.059 182.61 203.102 180.047 197.818 169.461C195.337 164.503 190.089 154.468 185.792 159.432C181.665 164.221 195.727 175.86 195.727 175.86L200.835 180.579ZM195.959 195.71C198.183 197.747 198.226 195.177 192.941 184.597C190.461 179.639 185.213 169.599 180.916 174.569C176.814 179.37 190.832 191.009 190.832 191.009L195.959 195.71ZM210.038 164.91C206.479 166.339 209.307 167.894 224.173 167.85C231.146 167.85 245.384 167.524 242.349 159.558C239.442 151.905 218.267 161.651 218.267 161.651L210.038 164.91ZM205.985 175.089C202.218 175.76 204.693 177.866 219.273 180.861C226.105 182.272 240.118 184.873 238.686 176.474C237.314 168.376 214.677 173.604 214.677 173.604L205.985 175.089ZM201.45 187.518C198.244 187.994 200.292 189.83 212.55 192.714C218.297 194.067 230.092 196.606 229.068 189.442C228.092 182.547 208.832 186.446 208.832 186.446L201.45 187.518ZM198.007 199.031C194.867 199.852 197.092 201.457 209.587 202.986C215.439 203.701 227.428 204.942 225.679 197.928C223.99 191.197 205.242 197.157 205.242 197.157L198.007 199.031ZM216.377 152.419C214.549 156.631 218.346 155.991 231.256 144.409C237.302 138.975 249.432 127.605 239.826 121.946C230.604 116.505 220.687 142.754 220.687 142.754L216.377 152.419ZM198.482 214.03C196.55 215.189 198.445 215.641 207.308 213.823C211.465 212.977 219.919 211.097 217.06 207.386C214.293 203.814 202.956 211.335 202.956 211.335L198.482 214.03Z" fill="#01FFC2"/>
<path opacity="0.3" d="M207.899 150.539C207.899 150.539 199.402 128.339 206.966 125.7C214.841 122.948 214.494 137.608 214.189 144.754C213.549 160.022 211.91 162.861 210.685 159.132L207.899 150.539ZM205.345 167.856C207.68 170.99 208.338 167.743 204.126 153.083C202.151 146.189 197.86 132.243 191.277 137.477C184.957 142.491 200 160.667 200 160.667L205.345 167.856ZM200.835 180.579C203.059 182.61 203.102 180.047 197.818 169.461C195.337 164.503 190.089 154.468 185.792 159.432C181.665 164.221 195.727 175.86 195.727 175.86L200.835 180.579ZM195.959 195.71C198.183 197.747 198.226 195.177 192.941 184.597C190.461 179.639 185.213 169.599 180.916 174.569C176.814 179.37 190.832 191.009 190.832 191.009L195.959 195.71ZM210.038 164.91C206.479 166.339 209.307 167.894 224.173 167.85C231.146 167.85 245.384 167.524 242.349 159.558C239.442 151.905 218.267 161.651 218.267 161.651L210.038 164.91ZM205.985 175.089C202.218 175.76 204.693 177.866 219.273 180.861C226.105 182.272 240.118 184.873 238.686 176.474C237.314 168.376 214.677 173.604 214.677 173.604L205.985 175.089ZM201.45 187.518C198.244 187.994 200.292 189.83 212.55 192.714C218.297 194.067 230.092 196.606 229.068 189.442C228.092 182.547 208.832 186.446 208.832 186.446L201.45 187.518ZM198.007 199.031C194.867 199.852 197.092 201.457 209.587 202.986C215.439 203.701 227.428 204.942 225.679 197.928C223.99 191.197 205.242 197.157 205.242 197.157L198.007 199.031ZM216.377 152.419C214.549 156.631 218.346 155.991 231.256 144.409C237.302 138.975 249.432 127.605 239.826 121.946C230.604 116.505 220.687 142.754 220.687 142.754L216.377 152.419ZM198.482 214.03C196.55 215.189 198.445 215.641 207.308 213.823C211.465 212.977 219.919 211.097 217.06 207.386C214.293 203.814 202.956 211.335 202.956 211.335L198.482 214.03Z" fill="white"/>
<path d="M211.648 160.874L210.167 135.534L211.648 160.874ZM206.961 169.235L197.598 147.442L206.961 169.235ZM231.122 162.898L208.685 166.207L231.122 162.898ZM202.109 180.98L189.961 164.954L202.109 180.98ZM204.242 176.066L220.979 176.931L204.242 176.066ZM200.28 188.357L213.08 189.661L200.28 188.357ZM197.19 196.167L190.833 186.333L197.19 196.167ZM196.459 199.639L211.508 199.783L196.459 199.639ZM193.411 228.671C193.512 228.663 193.605 228.614 193.672 228.536C193.738 228.457 193.771 228.355 193.764 228.251C192.807 213.472 198.366 189.266 207.284 169.398C212.983 156.699 235.321 131.742 235.559 131.491C235.631 131.417 235.671 131.317 235.671 131.212C235.671 131.108 235.631 131.007 235.559 130.933C235.524 130.897 235.482 130.868 235.436 130.848C235.39 130.829 235.341 130.818 235.291 130.818C235.241 130.818 235.192 130.829 235.146 130.848C235.1 130.868 235.058 130.897 235.023 130.933C234.797 131.184 212.367 156.236 206.619 169.047C197.537 189.398 192.052 213.165 193.027 228.301C193.035 228.401 193.078 228.494 193.149 228.562C193.22 228.631 193.314 228.67 193.411 228.671ZM211.642 161.262C211.742 161.256 211.837 161.209 211.904 161.131C211.971 161.054 212.006 160.952 212.001 160.849L210.544 135.496C210.542 135.444 210.53 135.394 210.508 135.347C210.487 135.3 210.456 135.259 210.419 135.224C210.381 135.19 210.338 135.163 210.29 135.147C210.243 135.13 210.192 135.123 210.142 135.126C210.041 135.133 209.947 135.18 209.88 135.257C209.813 135.335 209.778 135.436 209.783 135.54L211.264 160.88C211.268 160.98 211.31 161.074 211.381 161.143C211.451 161.212 211.544 161.25 211.642 161.25V161.262ZM207.095 169.592C207.186 169.549 207.257 169.472 207.294 169.376C207.33 169.28 207.329 169.173 207.29 169.078L197.921 147.285C197.881 147.191 197.806 147.116 197.712 147.079C197.618 147.041 197.514 147.043 197.422 147.085C197.329 147.126 197.257 147.204 197.22 147.3C197.184 147.397 197.186 147.504 197.226 147.599L206.589 169.391C206.618 169.461 206.667 169.521 206.728 169.563C206.79 169.606 206.862 169.629 206.936 169.63C206.999 169.633 207.062 169.62 207.119 169.592H207.095ZM208.716 166.584L231.14 163.287C231.194 163.286 231.248 163.273 231.297 163.249C231.345 163.225 231.389 163.191 231.424 163.148C231.459 163.106 231.485 163.057 231.501 163.003C231.516 162.95 231.52 162.894 231.513 162.838C231.505 162.783 231.487 162.73 231.458 162.683C231.429 162.636 231.391 162.595 231.346 162.564C231.301 162.533 231.25 162.512 231.197 162.503C231.144 162.493 231.089 162.496 231.037 162.51L208.612 165.806C208.512 165.813 208.419 165.86 208.352 165.938C208.286 166.015 208.252 166.117 208.259 166.22C208.265 166.323 208.311 166.419 208.387 166.487C208.462 166.556 208.561 166.59 208.661 166.584H208.716ZM202.322 181.294C202.402 181.229 202.453 181.135 202.466 181.032C202.479 180.929 202.451 180.825 202.389 180.742L190.235 164.684C190.173 164.601 190.081 164.547 189.98 164.534C189.879 164.52 189.777 164.548 189.696 164.612C189.615 164.676 189.562 164.771 189.549 164.875C189.536 164.979 189.564 165.084 189.626 165.167L201.804 181.25C201.839 181.297 201.885 181.335 201.936 181.361C201.988 181.387 202.045 181.4 202.103 181.4C202.194 181.396 202.28 181.358 202.346 181.294H202.322ZM221.315 176.95C221.318 176.847 221.281 176.746 221.213 176.669C221.145 176.593 221.05 176.548 220.949 176.543L204.242 175.672C204.148 175.678 204.06 175.72 203.994 175.789C203.928 175.858 203.889 175.95 203.885 176.047C203.88 176.143 203.911 176.238 203.97 176.314C204.029 176.389 204.113 176.439 204.205 176.455L220.943 177.326C221.044 177.33 221.142 177.292 221.216 177.222C221.29 177.151 221.334 177.054 221.339 176.95H221.315ZM213.434 189.699C213.44 189.647 213.435 189.595 213.421 189.545C213.407 189.495 213.384 189.449 213.352 189.408C213.32 189.368 213.281 189.335 213.236 189.31C213.191 189.286 213.143 189.271 213.092 189.266L200.292 187.969C200.243 187.964 200.193 187.969 200.145 187.983C200.097 187.998 200.053 188.023 200.014 188.055C199.975 188.088 199.944 188.128 199.92 188.174C199.897 188.219 199.882 188.269 199.878 188.32C199.869 188.423 199.9 188.525 199.964 188.604C200.028 188.684 200.119 188.735 200.219 188.746L213.019 190.05H213.056C213.154 190.057 213.251 190.024 213.326 189.958C213.401 189.893 213.449 189.799 213.458 189.699H213.434ZM197.373 196.493C197.457 196.435 197.516 196.346 197.537 196.243C197.558 196.141 197.538 196.035 197.482 195.947L191.156 186.114C191.098 186.029 191.01 185.97 190.911 185.951C190.813 185.931 190.71 185.951 190.625 186.007C190.541 186.064 190.482 186.154 190.461 186.256C190.441 186.359 190.46 186.465 190.516 186.552L196.842 196.386C196.879 196.44 196.927 196.484 196.983 196.514C197.039 196.545 197.102 196.561 197.166 196.562C197.248 196.566 197.33 196.542 197.397 196.493H197.373ZM211.892 199.783C211.89 199.68 211.85 199.581 211.78 199.508C211.709 199.434 211.614 199.392 211.514 199.388L196.465 199.244C196.364 199.244 196.268 199.285 196.197 199.358C196.127 199.431 196.087 199.53 196.087 199.633C196.085 199.685 196.094 199.736 196.112 199.784C196.13 199.833 196.158 199.877 196.193 199.914C196.229 199.951 196.271 199.98 196.318 199.999C196.364 200.019 196.414 200.029 196.465 200.028L211.514 200.172C211.565 200.174 211.616 200.166 211.665 200.148C211.713 200.13 211.757 200.101 211.795 200.065C211.832 200.029 211.862 199.985 211.883 199.937C211.904 199.888 211.915 199.836 211.916 199.783H211.892ZM191.698 222.923C191.729 222.854 194.295 215.584 202.011 213.848C202.111 213.825 202.197 213.763 202.252 213.675C202.307 213.587 202.326 213.48 202.304 213.378C202.279 213.278 202.218 213.191 202.133 213.136C202.048 213.081 201.945 213.062 201.847 213.083C193.71 214.913 191.009 222.591 190.979 222.666C190.948 222.765 190.955 222.873 190.999 222.967C191.043 223.06 191.121 223.132 191.217 223.168H191.339C191.42 223.175 191.501 223.155 191.57 223.111C191.639 223.067 191.693 223.001 191.723 222.923H191.698ZM193.411 228.671C193.512 228.663 193.605 228.614 193.672 228.536C193.738 228.457 193.771 228.355 193.764 228.251C192.807 213.472 198.366 189.266 207.284 169.398C212.983 156.699 235.321 131.742 235.559 131.491C235.631 131.417 235.671 131.317 235.671 131.212C235.671 131.108 235.631 131.007 235.559 130.933C235.524 130.897 235.482 130.868 235.436 130.848C235.39 130.829 235.341 130.818 235.291 130.818C235.241 130.818 235.192 130.829 235.146 130.848C235.1 130.868 235.058 130.897 235.023 130.933C234.797 131.184 212.367 156.236 206.619 169.047C197.537 189.398 192.052 213.165 193.027 228.301C193.035 228.401 193.078 228.494 193.149 228.562C193.22 228.631 193.314 228.67 193.411 228.671ZM211.642 161.262C211.742 161.256 211.837 161.209 211.904 161.131C211.971 161.054 212.006 160.952 212.001 160.849L210.544 135.496C210.542 135.444 210.53 135.394 210.508 135.347C210.487 135.3 210.456 135.259 210.419 135.224C210.381 135.19 210.338 135.163 210.29 135.147C210.243 135.13 210.192 135.123 210.142 135.126C210.041 135.133 209.947 135.18 209.88 135.257C209.813 135.335 209.778 135.436 209.783 135.54L211.264 160.88C211.268 160.98 211.31 161.074 211.381 161.143C211.451 161.212 211.544 161.25 211.642 161.25V161.262ZM207.095 169.592C207.186 169.549 207.257 169.472 207.294 169.376C207.33 169.28 207.329 169.173 207.29 169.078L197.921 147.285C197.881 147.191 197.806 147.116 197.712 147.079C197.618 147.041 197.514 147.043 197.422 147.085C197.329 147.126 197.257 147.204 197.22 147.3C197.184 147.397 197.186 147.504 197.226 147.599L206.589 169.391C206.618 169.461 206.667 169.521 206.728 169.563C206.79 169.606 206.862 169.629 206.936 169.63C206.999 169.633 207.062 169.62 207.119 169.592H207.095ZM208.716 166.584L231.14 163.287C231.194 163.286 231.248 163.273 231.297 163.249C231.345 163.225 231.389 163.191 231.424 163.148C231.459 163.106 231.485 163.057 231.501 163.003C231.516 162.95 231.52 162.894 231.513 162.838C231.505 162.783 231.487 162.73 231.458 162.683C231.429 162.636 231.391 162.595 231.346 162.564C231.301 162.533 231.25 162.512 231.197 162.503C231.144 162.493 231.089 162.496 231.037 162.51L208.612 165.806C208.512 165.813 208.419 165.86 208.352 165.938C208.286 166.015 208.252 166.117 208.259 166.22C208.265 166.323 208.311 166.419 208.387 166.487C208.462 166.556 208.561 166.59 208.661 166.584H208.716ZM202.322 181.294C202.402 181.229 202.453 181.135 202.466 181.032C202.479 180.929 202.451 180.825 202.389 180.742L190.235 164.684C190.204 164.643 190.166 164.609 190.122 164.583C190.079 164.557 190.03 164.54 189.98 164.534C189.93 164.527 189.879 164.53 189.83 164.544C189.782 164.557 189.736 164.581 189.696 164.612C189.656 164.644 189.622 164.684 189.597 164.729C189.572 164.774 189.556 164.823 189.549 164.875C189.543 164.926 189.546 164.979 189.559 165.029C189.572 165.079 189.595 165.126 189.626 165.167L201.804 181.25C201.839 181.297 201.885 181.335 201.936 181.361C201.988 181.387 202.045 181.4 202.103 181.4C202.194 181.396 202.28 181.358 202.346 181.294H202.322ZM221.315 176.95C221.318 176.847 221.281 176.746 221.213 176.669C221.145 176.593 221.05 176.548 220.949 176.543L204.242 175.672C204.148 175.678 204.06 175.72 203.994 175.789C203.928 175.858 203.889 175.95 203.885 176.047C203.88 176.143 203.911 176.238 203.97 176.314C204.029 176.389 204.113 176.439 204.205 176.455L220.943 177.326C221.044 177.33 221.142 177.292 221.216 177.222C221.29 177.151 221.334 177.054 221.339 176.95H221.315ZM213.434 189.699C213.44 189.647 213.435 189.595 213.421 189.545C213.407 189.495 213.384 189.449 213.352 189.408C213.32 189.368 213.281 189.335 213.236 189.31C213.191 189.286 213.143 189.271 213.092 189.266L200.292 187.969C200.243 187.964 200.193 187.969 200.145 187.983C200.097 187.998 200.053 188.023 200.014 188.055C199.975 188.088 199.944 188.128 199.92 188.174C199.897 188.219 199.882 188.269 199.878 188.32C199.869 188.423 199.9 188.525 199.964 188.604C200.028 188.684 200.119 188.735 200.219 188.746L213.019 190.05H213.056C213.154 190.057 213.251 190.024 213.326 189.958C213.401 189.893 213.449 189.799 213.458 189.699H213.434ZM197.373 196.493C197.457 196.435 197.516 196.346 197.537 196.243C197.558 196.141 197.538 196.035 197.482 195.947L191.156 186.114C191.098 186.029 191.01 185.97 190.911 185.951C190.813 185.931 190.71 185.951 190.625 186.007C190.541 186.064 190.482 186.154 190.461 186.256C190.441 186.359 190.46 186.465 190.516 186.552L196.842 196.386C196.879 196.44 196.927 196.484 196.983 196.514C197.039 196.545 197.102 196.561 197.166 196.562C197.248 196.566 197.33 196.542 197.397 196.493H197.373ZM211.892 199.783C211.89 199.68 211.85 199.581 211.78 199.508C211.709 199.434 211.614 199.392 211.514 199.388L196.465 199.244C196.364 199.244 196.268 199.285 196.197 199.358C196.127 199.431 196.087 199.53 196.087 199.633C196.085 199.685 196.094 199.736 196.112 199.784C196.13 199.833 196.158 199.877 196.193 199.914C196.229 199.951 196.271 199.98 196.318 199.999C196.364 200.019 196.414 200.029 196.465 200.028L211.514 200.172C211.565 200.174 211.616 200.166 211.665 200.148C211.713 200.13 211.757 200.101 211.795 200.065C211.832 200.029 211.862 199.985 211.883 199.937C211.904 199.888 211.915 199.836 211.916 199.783H211.892ZM191.698 222.923C191.729 222.854 194.295 215.584 202.011 213.848C202.111 213.825 202.197 213.763 202.252 213.675C202.307 213.587 202.326 213.48 202.304 213.378C202.279 213.278 202.218 213.191 202.133 213.136C202.048 213.081 201.945 213.062 201.847 213.083C193.71 214.913 191.009 222.591 190.979 222.666C190.948 222.765 190.955 222.873 190.999 222.967C191.043 223.06 191.121 223.132 191.217 223.168H191.339C191.42 223.175 191.501 223.155 191.57 223.111C191.639 223.067 191.693 223.001 191.723 222.923H191.698Z" fill="#01D2FF"/>
<path opacity="0.2" d="M211.648 160.874L210.167 135.534L211.648 160.874ZM206.961 169.235L197.598 147.442L206.961 169.235ZM231.122 162.898L208.685 166.207L231.122 162.898ZM202.109 180.98L189.961 164.954L202.109 180.98ZM204.242 176.066L220.979 176.931L204.242 176.066ZM200.28 188.357L213.08 189.661L200.28 188.357ZM197.19 196.167L190.833 186.333L197.19 196.167ZM196.459 199.639L211.508 199.783L196.459 199.639ZM193.411 228.671C193.512 228.663 193.605 228.614 193.672 228.536C193.738 228.457 193.771 228.355 193.764 228.251C192.807 213.472 198.366 189.266 207.284 169.398C212.983 156.699 235.321 131.742 235.559 131.491C235.631 131.417 235.671 131.317 235.671 131.212C235.671 131.108 235.631 131.007 235.559 130.933C235.524 130.897 235.482 130.868 235.436 130.848C235.39 130.829 235.341 130.818 235.291 130.818C235.241 130.818 235.192 130.829 235.146 130.848C235.1 130.868 235.058 130.897 235.023 130.933C234.797 131.184 212.367 156.236 206.619 169.047C197.537 189.398 192.052 213.165 193.027 228.301C193.035 228.401 193.078 228.494 193.149 228.562C193.22 228.631 193.314 228.67 193.411 228.671ZM211.642 161.262C211.742 161.256 211.837 161.209 211.904 161.131C211.971 161.054 212.006 160.952 212.001 160.849L210.544 135.496C210.542 135.444 210.53 135.394 210.508 135.347C210.487 135.3 210.456 135.259 210.419 135.224C210.381 135.19 210.338 135.163 210.29 135.147C210.243 135.13 210.192 135.123 210.142 135.126C210.041 135.133 209.947 135.18 209.88 135.257C209.813 135.335 209.778 135.436 209.783 135.54L211.264 160.88C211.268 160.98 211.31 161.074 211.381 161.143C211.451 161.212 211.544 161.25 211.642 161.25V161.262ZM207.095 169.592C207.186 169.549 207.257 169.472 207.294 169.376C207.33 169.28 207.329 169.173 207.29 169.078L197.921 147.285C197.881 147.191 197.806 147.116 197.712 147.079C197.618 147.041 197.514 147.043 197.422 147.085C197.329 147.126 197.257 147.204 197.22 147.3C197.184 147.397 197.186 147.504 197.226 147.599L206.589 169.391C206.618 169.461 206.667 169.521 206.728 169.563C206.79 169.606 206.862 169.629 206.936 169.63C206.999 169.633 207.062 169.62 207.119 169.592H207.095ZM208.716 166.584L231.14 163.287C231.194 163.286 231.248 163.273 231.297 163.249C231.345 163.225 231.389 163.191 231.424 163.148C231.459 163.106 231.485 163.057 231.501 163.003C231.516 162.95 231.52 162.894 231.513 162.838C231.505 162.783 231.487 162.73 231.458 162.683C231.429 162.636 231.391 162.595 231.346 162.564C231.301 162.533 231.25 162.512 231.197 162.503C231.144 162.493 231.089 162.496 231.037 162.51L208.612 165.806C208.512 165.813 208.419 165.86 208.352 165.938C208.286 166.015 208.252 166.117 208.259 166.22C208.265 166.323 208.311 166.419 208.387 166.487C208.462 166.556 208.561 166.59 208.661 166.584H208.716ZM202.322 181.294C202.402 181.229 202.453 181.135 202.466 181.032C202.479 180.929 202.451 180.825 202.389 180.742L190.235 164.684C190.173 164.601 190.081 164.547 189.98 164.534C189.879 164.52 189.777 164.548 189.696 164.612C189.615 164.676 189.562 164.771 189.549 164.875C189.536 164.979 189.564 165.084 189.626 165.167L201.804 181.25C201.839 181.297 201.885 181.335 201.936 181.361C201.988 181.387 202.045 181.4 202.103 181.4C202.194 181.396 202.28 181.358 202.346 181.294H202.322ZM221.315 176.95C221.318 176.847 221.281 176.746 221.213 176.669C221.145 176.593 221.05 176.548 220.949 176.543L204.242 175.672C204.148 175.678 204.06 175.72 203.994 175.789C203.928 175.858 203.889 175.95 203.885 176.047C203.88 176.143 203.911 176.238 203.97 176.314C204.029 176.389 204.113 176.439 204.205 176.455L220.943 177.326C221.044 177.33 221.142 177.292 221.216 177.222C221.29 177.151 221.334 177.054 221.339 176.95H221.315ZM213.434 189.699C213.44 189.647 213.435 189.595 213.421 189.545C213.407 189.495 213.384 189.449 213.352 189.408C213.32 189.368 213.281 189.335 213.236 189.31C213.191 189.286 213.143 189.271 213.092 189.266L200.292 187.969C200.243 187.964 200.193 187.969 200.145 187.983C200.097 187.998 200.053 188.023 200.014 188.055C199.975 188.088 199.944 188.128 199.92 188.174C199.897 188.219 199.882 188.269 199.878 188.32C199.869 188.423 199.9 188.525 199.964 188.604C200.028 188.684 200.119 188.735 200.219 188.746L213.019 190.05H213.056C213.154 190.057 213.251 190.024 213.326 189.958C213.401 189.893 213.449 189.799 213.458 189.699H213.434ZM197.373 196.493C197.457 196.435 197.516 196.346 197.537 196.243C197.558 196.141 197.538 196.035 197.482 195.947L191.156 186.114C191.098 186.029 191.01 185.97 190.911 185.951C190.813 185.931 190.71 185.951 190.625 186.007C190.541 186.064 190.482 186.154 190.461 186.256C190.441 186.359 190.46 186.465 190.516 186.552L196.842 196.386C196.879 196.44 196.927 196.484 196.983 196.514C197.039 196.545 197.102 196.561 197.166 196.562C197.248 196.566 197.33 196.542 197.397 196.493H197.373ZM211.892 199.783C211.89 199.68 211.85 199.581 211.78 199.508C211.709 199.434 211.614 199.392 211.514 199.388L196.465 199.244C196.364 199.244 196.268 199.285 196.197 199.358C196.127 199.431 196.087 199.53 196.087 199.633C196.085 199.685 196.094 199.736 196.112 199.784C196.13 199.833 196.158 199.877 196.193 199.914C196.229 199.951 196.271 199.98 196.318 199.999C196.364 200.019 196.414 200.029 196.465 200.028L211.514 200.172C211.565 200.174 211.616 200.166 211.665 200.148C211.713 200.13 211.757 200.101 211.795 200.065C211.832 200.029 211.862 199.985 211.883 199.937C211.904 199.888 211.915 199.836 211.916 199.783H211.892ZM191.698 222.923C191.729 222.854 194.295 215.584 202.011 213.848C202.111 213.825 202.197 213.763 202.252 213.675C202.307 213.587 202.326 213.48 202.304 213.378C202.279 213.278 202.218 213.191 202.133 213.136C202.048 213.081 201.945 213.062 201.847 213.083C193.71 214.913 191.009 222.591 190.979 222.666C190.948 222.765 190.955 222.873 190.999 222.967C191.043 223.06 191.121 223.132 191.217 223.168H191.339C191.42 223.175 191.501 223.155 191.57 223.111C191.639 223.067 191.693 223.001 191.723 222.923H191.698ZM193.411 228.671C193.512 228.663 193.605 228.614 193.672 228.536C193.738 228.457 193.771 228.355 193.764 228.251C192.807 213.472 198.366 189.266 207.284 169.398C212.983 156.699 235.321 131.742 235.559 131.491C235.631 131.417 235.671 131.317 235.671 131.212C235.671 131.108 235.631 131.007 235.559 130.933C235.524 130.897 235.482 130.868 235.436 130.848C235.39 130.829 235.341 130.818 235.291 130.818C235.241 130.818 235.192 130.829 235.146 130.848C235.1 130.868 235.058 130.897 235.023 130.933C234.797 131.184 212.367 156.236 206.619 169.047C197.537 189.398 192.052 213.165 193.027 228.301C193.035 228.401 193.078 228.494 193.149 228.562C193.22 228.631 193.314 228.67 193.411 228.671ZM211.642 161.262C211.742 161.256 211.837 161.209 211.904 161.131C211.971 161.054 212.006 160.952 212.001 160.849L210.544 135.496C210.542 135.444 210.53 135.394 210.508 135.347C210.487 135.3 210.456 135.259 210.419 135.224C210.381 135.19 210.338 135.163 210.29 135.147C210.243 135.13 210.192 135.123 210.142 135.126C210.041 135.133 209.947 135.18 209.88 135.257C209.813 135.335 209.778 135.436 209.783 135.54L211.264 160.88C211.268 160.98 211.31 161.074 211.381 161.143C211.451 161.212 211.544 161.25 211.642 161.25V161.262ZM207.095 169.592C207.186 169.549 207.257 169.472 207.294 169.376C207.33 169.28 207.329 169.173 207.29 169.078L197.921 147.285C197.881 147.191 197.806 147.116 197.712 147.079C197.618 147.041 197.514 147.043 197.422 147.085C197.329 147.126 197.257 147.204 197.22 147.3C197.184 147.397 197.186 147.504 197.226 147.599L206.589 169.391C206.618 169.461 206.667 169.521 206.728 169.563C206.79 169.606 206.862 169.629 206.936 169.63C206.999 169.633 207.062 169.62 207.119 169.592H207.095ZM208.716 166.584L231.14 163.287C231.194 163.286 231.248 163.273 231.297 163.249C231.345 163.225 231.389 163.191 231.424 163.148C231.459 163.106 231.485 163.057 231.501 163.003C231.516 162.95 231.52 162.894 231.513 162.838C231.505 162.783 231.487 162.73 231.458 162.683C231.429 162.636 231.391 162.595 231.346 162.564C231.301 162.533 231.25 162.512 231.197 162.503C231.144 162.493 231.089 162.496 231.037 162.51L208.612 165.806C208.512 165.813 208.419 165.86 208.352 165.938C208.286 166.015 208.252 166.117 208.259 166.22C208.265 166.323 208.311 166.419 208.387 166.487C208.462 166.556 208.561 166.59 208.661 166.584H208.716ZM202.322 181.294C202.402 181.229 202.453 181.135 202.466 181.032C202.479 180.929 202.451 180.825 202.389 180.742L190.235 164.684C190.204 164.643 190.166 164.609 190.122 164.583C190.079 164.557 190.03 164.54 189.98 164.534C189.93 164.527 189.879 164.53 189.83 164.544C189.782 164.557 189.736 164.581 189.696 164.612C189.656 164.644 189.622 164.684 189.597 164.729C189.572 164.774 189.556 164.823 189.549 164.875C189.543 164.926 189.546 164.979 189.559 165.029C189.572 165.079 189.595 165.126 189.626 165.167L201.804 181.25C201.839 181.297 201.885 181.335 201.936 181.361C201.988 181.387 202.045 181.4 202.103 181.4C202.194 181.396 202.28 181.358 202.346 181.294H202.322ZM221.315 176.95C221.318 176.847 221.281 176.746 221.213 176.669C221.145 176.593 221.05 176.548 220.949 176.543L204.242 175.672C204.148 175.678 204.06 175.72 203.994 175.789C203.928 175.858 203.889 175.95 203.885 176.047C203.88 176.143 203.911 176.238 203.97 176.314C204.029 176.389 204.113 176.439 204.205 176.455L220.943 177.326C221.044 177.33 221.142 177.292 221.216 177.222C221.29 177.151 221.334 177.054 221.339 176.95H221.315ZM213.434 189.699C213.44 189.647 213.435 189.595 213.421 189.545C213.407 189.495 213.384 189.449 213.352 189.408C213.32 189.368 213.281 189.335 213.236 189.31C213.191 189.286 213.143 189.271 213.092 189.266L200.292 187.969C200.243 187.964 200.193 187.969 200.145 187.983C200.097 187.998 200.053 188.023 200.014 188.055C199.975 188.088 199.944 188.128 199.92 188.174C199.897 188.219 199.882 188.269 199.878 188.32C199.869 188.423 199.9 188.525 199.964 188.604C200.028 188.684 200.119 188.735 200.219 188.746L213.019 190.05H213.056C213.154 190.057 213.251 190.024 213.326 189.958C213.401 189.893 213.449 189.799 213.458 189.699H213.434ZM197.373 196.493C197.457 196.435 197.516 196.346 197.537 196.243C197.558 196.141 197.538 196.035 197.482 195.947L191.156 186.114C191.098 186.029 191.01 185.97 190.911 185.951C190.813 185.931 190.71 185.951 190.625 186.007C190.541 186.064 190.482 186.154 190.461 186.256C190.441 186.359 190.46 186.465 190.516 186.552L196.842 196.386C196.879 196.44 196.927 196.484 196.983 196.514C197.039 196.545 197.102 196.561 197.166 196.562C197.248 196.566 197.33 196.542 197.397 196.493H197.373ZM211.892 199.783C211.89 199.68 211.85 199.581 211.78 199.508C211.709 199.434 211.614 199.392 211.514 199.388L196.465 199.244C196.364 199.244 196.268 199.285 196.197 199.358C196.127 199.431 196.087 199.53 196.087 199.633C196.085 199.685 196.094 199.736 196.112 199.784C196.13 199.833 196.158 199.877 196.193 199.914C196.229 199.951 196.271 199.98 196.318 199.999C196.364 200.019 196.414 200.029 196.465 200.028L211.514 200.172C211.565 200.174 211.616 200.166 211.665 200.148C211.713 200.13 211.757 200.101 211.795 200.065C211.832 200.029 211.862 199.985 211.883 199.937C211.904 199.888 211.915 199.836 211.916 199.783H211.892ZM191.698 222.923C191.729 222.854 194.295 215.584 202.011 213.848C202.111 213.825 202.197 213.763 202.252 213.675C202.307 213.587 202.326 213.48 202.304 213.378C202.279 213.278 202.218 213.191 202.133 213.136C202.048 213.081 201.945 213.062 201.847 213.083C193.71 214.913 191.009 222.591 190.979 222.666C190.948 222.765 190.955 222.873 190.999 222.967C191.043 223.06 191.121 223.132 191.217 223.168H191.339C191.42 223.175 191.501 223.155 191.57 223.111C191.639 223.067 191.693 223.001 191.723 222.923H191.698Z" fill="black"/>
<path d="M203.364 217.621H186.109V221.294H187.614L190.729 241.332H198.744L201.859 221.294H203.364V217.621Z" fill="#01D2FF"/>
<path opacity="0.3" d="M203.364 217.621H186.109V221.294H187.614L190.729 241.332H198.744L201.859 221.294H203.364V217.621Z" fill="white"/>
<path d="M48.0101 106.559L27.9387 99.8213L26.1528 94.9701L22.0751 94.8385L14.6755 93.397L15.5654 94.9701L24.8789 101.921L27.1768 103.099L48.1686 114.375L48.0101 106.559Z" fill="white" stroke="#263238" stroke-width="0.920966" stroke-miterlimit="10"/>
<path d="M26.1527 94.9701L24.2388 93.7917L20.4171 95.2333L21.051 96.0168L26.1527 94.9701Z" fill="white" stroke="#263238" stroke-width="0.920966" stroke-linejoin="round"/>
<path d="M48.0101 106.559L27.9387 99.8213L26.1528 94.9701L22.0751 94.8385L14.6755 93.397L15.5654 94.9701L24.8789 101.921L27.1768 103.099L48.1686 114.375L48.0101 106.559Z" fill="white"/>
<path opacity="0.5" d="M48.0101 106.559L27.9387 99.8213L26.1528 94.9701L22.0751 94.8385L14.6755 93.397L15.5654 94.9701L24.8789 101.921L27.1768 103.099L48.1686 114.375L48.0101 106.559Z" fill="#01D2FF" stroke="#263238" stroke-width="0.920966" stroke-miterlimit="10"/>
<path d="M48.0101 106.559L27.9387 99.8213L26.1528 94.9701L22.0751 94.8385L14.6755 93.397L15.5654 94.9701L24.8789 101.921L27.1768 103.099L48.1686 114.375L48.0101 106.559Z" stroke="#263238" stroke-width="0.920966" stroke-miterlimit="10"/>
<path d="M26.1527 94.9701L24.2388 93.7917L20.4171 95.2333L21.051 96.0168L26.1527 94.9701Z" fill="white"/>
<path opacity="0.5" d="M26.1527 94.9701L24.2388 93.7917L20.4171 95.2333L21.051 96.0168L26.1527 94.9701Z" fill="#01D2FF" stroke="#263238" stroke-width="0.920966" stroke-linejoin="round"/>
<path d="M26.1527 94.9701L24.2388 93.7917L20.4171 95.2333L21.051 96.0168L26.1527 94.9701Z" stroke="#263238" stroke-width="0.920966" stroke-linejoin="round"/>
<path d="M52.2706 62.8295C52.2706 62.8295 51.9598 65.6499 52.7338 67.4612C53.5079 69.2726 57.8051 75.4086 57.8051 75.4086L49.7838 82.021C49.7838 82.021 46.4558 75.1266 45.8219 74.0109C45.188 72.8953 44.4261 68.0943 46.4924 64.6533C48.5586 61.2124 51.5331 60.2848 52.2706 62.8295Z" fill="white"/>
<g style="mix-blend-mode:multiply" opacity="0.5">
<path d="M48.1503 71.8926L51.6306 79.3135L49.7777 82.0274L46.2791 75.603L48.1503 71.8926Z" fill="#01D2FF"/>
</g>
<path d="M52.2706 62.8295C52.2706 62.8295 51.9598 65.6499 52.7338 67.4612C53.5079 69.2726 57.8051 75.4086 57.8051 75.4086L49.7838 82.021C49.7838 82.021 46.4558 75.1266 45.8219 74.0109C45.188 72.8953 44.4261 68.0943 46.4924 64.6533C48.5586 61.2124 51.5331 60.2848 52.2706 62.8295Z" stroke="#263238" stroke-width="0.920966" stroke-miterlimit="10"/>
<path d="M54.7575 57.6647C54.2638 54.5309 50.7712 48.1567 45.2307 48.4011C41.6345 48.5641 39.9523 49.3099 38.3919 50.2187C37.12 50.9893 35.9344 51.9015 34.8567 52.9389C32.1504 56.2795 31.1996 57.1946 31.7237 59.7518C31.6807 60.7718 31.8362 61.7903 32.1809 62.7478C33.0098 65.0229 33.5767 66.5083 34.2959 67.5926C34.0765 68.6519 33.5035 71.4472 33.4731 72.0865C33.4426 72.7258 35.3016 72.2808 36.2403 72.0364C37.9835 76.0477 41.1774 78.8305 42.1709 79.1502C43.9019 79.708 46.6387 76.781 48.0893 74.5121C49.54 72.2432 48.4429 69.6923 48.449 68.6769C48.455 67.6616 51.7099 65.4303 52.9167 64.7221C54.1236 64.0138 55.2451 60.7923 54.7575 57.6647Z" fill="white"/>
<g style="mix-blend-mode:multiply" opacity="0.5">
<path d="M31.7481 59.7523C31.7051 60.7723 31.8605 61.7908 32.2052 62.7483C33.0342 65.0234 33.601 66.5088 34.3202 67.5931C34.1008 68.6524 33.5279 71.4477 33.4974 72.087C33.4669 72.7263 35.3259 72.2813 36.2646 72.0369C38.0078 76.0482 41.2017 78.831 42.1952 79.1507C43.9263 79.7085 46.663 76.7815 48.1137 74.5126C48.4761 73.9462 48.7114 73.3039 48.8024 72.6323C48.7232 72.3377 48.6683 72.156 48.6683 72.156C48.6683 72.156 47.8516 75.3838 46.2302 74.9639C44.6089 74.544 42.1282 71.2033 40.7446 70.0501C39.361 68.8968 39.9278 67.38 39.6535 65.6627C39.3793 63.9454 35.2833 62.4349 35.009 61.4509C34.7347 60.4668 35.6917 56.3929 35.6917 56.3929C35.6917 56.3929 37.2459 54.2619 36.9107 55.1393C36.6738 55.9002 36.5878 56.7022 36.658 57.4978C36.7281 58.2935 36.9529 59.0665 37.3191 59.7711C37.576 60.3271 37.9836 60.795 38.4929 61.1185C39.0021 61.4421 39.5914 61.6075 40.1899 61.595L41.6771 54.0174L38.5381 51.3474L34.881 52.9143C32.1504 56.2801 31.2178 57.1951 31.7481 59.7523Z" fill="#01D2FF"/>
</g>
<path d="M54.7575 57.6647C54.2638 54.5309 50.7712 48.1567 45.2307 48.4011C41.6345 48.5641 39.9523 49.3099 38.3919 50.2187C37.12 50.9893 35.9344 51.9015 34.8567 52.9389C32.1504 56.2795 31.1996 57.1946 31.7237 59.7518C31.6807 60.7718 31.8362 61.7903 32.1809 62.7478C33.0098 65.0229 33.5767 66.5083 34.2959 67.5926C34.0765 68.6519 33.5035 71.4472 33.4731 72.0865C33.4426 72.7258 35.3016 72.2808 36.2403 72.0364C37.9835 76.0477 41.1774 78.8305 42.1709 79.1502C43.9019 79.708 46.6387 76.781 48.0893 74.5121C49.54 72.2432 48.4429 69.6923 48.449 68.6769C48.455 67.6616 51.7099 65.4303 52.9167 64.7221C54.1236 64.0138 55.2451 60.7923 54.7575 57.6647Z" stroke="#263238" stroke-width="0.917333" stroke-miterlimit="10"/>
<path d="M35.0516 65.7L35.6612 67.4925C35.6612 67.4925 36.9716 67.9375 38.5686 66.145" stroke="#263238" stroke-width="0.917333" stroke-miterlimit="10" stroke-linecap="round"/>
<path d="M39.5559 74.0737C39.5559 74.0737 41.0066 73.9232 41.5917 71.8298" stroke="#263238" stroke-width="0.917333" stroke-miterlimit="10" stroke-linecap="round"/>
<path d="M34.0338 64.202C34.0338 64.202 34.4666 62.8545 37.0814 62.8545" stroke="#263238" stroke-width="0.917333" stroke-miterlimit="10" stroke-linecap="round"/>
<path d="M47.4371 45.907C45.5371 45.626 43.621 45.4753 41.7016 45.4557C41.7016 45.4557 35.9599 42.0524 30.4438 45.6813C24.9276 49.3103 27.579 55.6657 27.579 57.2514C27.579 58.8371 25.8114 58.8434 26.9146 60.8866C28.0179 62.9299 31.7481 61.8017 31.7481 61.8017C31.7875 61.0311 31.9856 60.2778 32.3292 59.5917C32.6728 58.9056 33.1541 58.3024 33.7413 57.8218C35.7283 56.2361 37.313 55.8913 37.9713 56.3489C37.9713 56.3489 37.5325 59.7522 38.1907 61.1123C38.1907 61.1123 40.3972 62.2467 41.0616 62.2467C41.726 62.2467 40.6288 63.2057 42.8292 64.0581C43.2301 64.2061 43.6589 64.2566 44.0819 64.2054C44.5049 64.1543 44.9107 64.0031 45.2673 63.7635C45.5903 62.3846 46.2973 60.31 47.6139 60.7926C49.5461 61.5009 51.3076 66.3896 48.6928 68.0568C51.8379 68.646 55.6474 62.9236 55.8729 57.7089C56.0984 52.4943 50.7042 46.4961 47.4371 45.907Z" fill="#263238"/>
<path d="M38.0688 54.1113C38.0688 54.1113 39.6902 53.215 41.6772 55.1329C43.6642 57.0508 47.5286 59.6143 52.6485 58.2041" stroke="white" stroke-width="0.458667" stroke-linecap="round" stroke-linejoin="round"/>
<path d="M37.8433 52.5757C37.8433 52.5757 38.9587 50.7832 40.8238 50.7832C42.6889 50.7832 47.047 53.472 50.5274 53.472" stroke="white" stroke-width="0.458667" stroke-linecap="round" stroke-linejoin="round"/>
<path d="M36.5756 56.0291C36.5756 56.0291 34.4605 53.3465 32.4735 55.5214C30.4865 57.6963 31.7482 59.7521 31.7482 59.7521" stroke="white" stroke-width="0.458667" stroke-linecap="round" stroke-linejoin="round"/>
<path d="M28.1213 57.8219C29.3334 56.6979 30.0868 55.1439 30.2303 53.4722C30.4802 50.658 34.2165 48.2261 36.5754 50.5326" stroke="white" stroke-width="0.458667" stroke-linecap="round" stroke-linejoin="round"/>
<path d="M31.9735 47.5866C31.9735 47.5866 35.7099 43.8762 38.8184 48.6082" stroke="white" stroke-width="0.458667" stroke-linecap="round" stroke-linejoin="round"/>
<path d="M62.3825 230.019C62.3825 230.019 64.6804 233.691 64.4244 236.054L64.1745 238.417C64.1745 238.417 55.7449 240.793 53.959 240.793C52.1731 240.793 42.7194 239.871 42.7194 239.871L42.311 238.204C42.2825 238.081 42.2959 237.951 42.3492 237.837C42.4025 237.723 42.4923 237.631 42.6036 237.577L51.0333 233.535L53.6908 230.545L62.3825 230.019Z" fill="white" stroke="#263238" stroke-width="0.920966" stroke-miterlimit="10"/>
<path d="M55.2387 238.944C57.5244 239.126 61.8642 237.69 64.3815 236.775L64.2048 238.418C64.2048 238.418 55.7446 240.793 53.9587 240.793C52.1729 240.793 42.7192 239.872 42.7192 239.872L42.4266 238.681C43.9382 238.687 52.2155 238.706 55.2387 238.944Z" fill="#01D2FF" stroke="#263238" stroke-width="0.920966" stroke-miterlimit="10"/>
<path d="M51.0455 233.535L38.7759 239.025C38.7759 239.025 37.7275 241.727 38.7759 242.266C39.8243 242.805 62.6812 242.266 62.6812 242.266C62.6812 242.266 64.2599 237.997 61.7669 235.133C59.274 232.269 51.0455 233.535 51.0455 233.535Z" fill="white" stroke="#263238" stroke-width="0.920966" stroke-miterlimit="10"/>
<path d="M62.6812 242.266C62.6812 242.266 39.8242 242.805 38.7759 242.266C38.27 242.003 38.2517 241.244 38.3675 240.523H63.0835C63.0027 241.116 62.868 241.699 62.6812 242.266Z" fill="#01D2FF" stroke="#263238" stroke-width="0.920966" stroke-miterlimit="10"/>
<path d="M45.2429 138.136C45.2429 138.136 42.0368 152.746 40.8239 161.884C39.6109 171.022 38.8978 189.33 39.1538 191.429C39.4098 193.529 52.1731 228.709 52.1731 228.709L53.447 231.843L62.3826 230.007C62.3826 230.007 58.2988 216.619 56.7689 209.267C55.239 201.915 51.8927 189.837 51.8927 187.738C51.8927 185.638 59.8165 145.538 60.3833 142.905C60.9502 140.273 63.5224 136.23 63.5224 136.23L46.4132 135.873L45.2429 138.136Z" fill="#01D2FF" stroke="#263238" stroke-width="0.920966" stroke-miterlimit="10"/>
<path d="M45.2428 138.135C45.2428 138.135 43.3655 151.479 44.1396 160.755C44.9136 170.031 46.5776 189.781 46.5776 192.72C46.5776 195.66 51.1917 213.215 51.4538 218.731C51.8622 226.697 51.2892 230.639 51.2892 230.639L51.0149 233.529C51.0149 233.529 56.397 234.318 57.5734 234.663C58.9321 235.023 60.3342 235.179 61.7364 235.127C61.7364 235.127 63.6929 226.271 63.6929 218.725C63.6929 211.178 62.0655 195.647 61.2549 189.354C60.4442 183.062 62.9981 158.787 64.4487 154.256C65.8994 149.724 69.0689 140.128 66.9356 135.227C64.8023 130.326 45.2428 138.135 45.2428 138.135Z" fill="#01D2FF" stroke="#263238" stroke-width="0.920966" stroke-miterlimit="10"/>
<path d="M69.3066 132.77L69.1116 138.737C69.1116 138.737 65.6373 139.445 60.9562 140.279C57.0919 140.968 47.3883 140.097 44.1213 139.771C43.8236 139.744 43.5483 139.597 43.3554 139.362C43.1625 139.128 43.0675 138.824 43.0912 138.518L43.4082 133.128L69.3066 132.77Z" fill="#263238"/>
<path d="M55.7265 73.2903C55.7265 73.2903 50.2408 79.3887 48.1746 83.1806C46.1083 86.9725 45.2916 92.7826 44.5175 97.358C43.7434 101.933 45.8401 112.676 45.2489 117.609L43.3777 133.146C43.3777 133.146 42.9754 134.199 44.3224 135.352C45.6695 136.506 52.2462 136.926 58.189 137.233C60.3589 137.346 66.8381 135.91 67.8986 135.841C69.1786 135.76 69.2213 134.086 69.2761 132.77C69.5321 126.584 70.6171 110.094 71.3302 102.911C72.7992 88.2637 64.7596 74.1239 55.7265 73.2903Z" fill="white" stroke="#263238" stroke-width="0.920966" stroke-miterlimit="10"/>
<g style="mix-blend-mode:multiply">
<path d="M70.6597 111.241C70.9035 107.988 71.1473 105.036 71.3606 102.911C71.4216 102.284 71.4582 101.657 71.4886 101.031L56.915 103.538L44.3955 99.1504C44.3969 101.814 44.5434 104.476 44.8344 107.123L57.1162 110.658L70.6597 111.241Z" fill="#01D2FF"/>
</g>
<g style="mix-blend-mode:multiply">
<path d="M55.1841 73.9043C54.3551 74.8507 52.7094 76.7749 51.1429 78.8181L60.3954 88.4891L63.443 87.2356L55.1841 73.9043Z" fill="#01D2FF"/>
</g>
<path d="M55.7266 73.2903C55.7266 73.2903 50.2409 79.3887 48.1746 83.1806C47.5619 84.333 47.0656 85.5469 46.6935 86.8033L57.7258 73.6977C57.074 73.4947 56.4044 73.3582 55.7266 73.2903Z" fill="#263238"/>
<g style="mix-blend-mode:multiply">
<path d="M44.944 94.8887L56.9149 98.9376L71.452 97.2202C71.2241 93.4964 70.4196 89.8339 69.0687 86.3709L57.3477 91.2033L46.87 86.3208C46.0133 89.1212 45.3693 91.9858 44.944 94.8887Z" fill="#01D2FF"/>
</g>
<g style="mix-blend-mode:multiply">
<path d="M65.5521 126.584C59.4805 127.632 53.2505 127.109 47.4249 125.061L44.5054 124.033L43.5972 131.554L46.9251 132.513C53.2518 134.332 59.8642 134.856 66.3871 134.055L69.0751 133.723C69.215 133.418 69.2937 133.088 69.3067 132.751C69.3798 131.078 69.5078 128.646 69.6724 125.857L65.5521 126.584Z" fill="#01D2FF"/>
</g>
<g style="mix-blend-mode:multiply">
<path d="M67.1793 116.342C61.1075 117.395 54.8761 116.869 49.0522 114.813L45.3342 113.503C45.4264 114.869 45.4081 116.24 45.2793 117.602L44.8466 121.219L48.5524 122.284C54.8766 124.105 61.487 124.631 68.0083 123.832L69.8369 123.607C69.9892 121.1 70.166 118.43 70.3549 115.791L67.1793 116.342Z" fill="#01D2FF"/>
</g>
<path d="M9.99512 89.8383L21.7804 99.582L22.2884 98.9324L10.5031 89.1887L9.99512 89.8383Z" fill="#263238"/>
<path d="M61.4012 80.053C61.4012 80.053 65.7227 83.0803 65.8202 90.2316C65.8629 93.3655 65.546 96.2924 64.845 101.426C64.1441 106.559 59.7921 123.275 56.4032 125.305C53.0142 127.336 47.7541 123.5 47.7541 123.5L22.3128 106.133L16.1627 101.025L13.1151 95.1079L14.0721 93.2276L21.5752 99.1442L17.5341 95.3022L18.3265 94.268L19.7893 95.3147L24.056 96.9568L24.9885 103.224L26.3051 104.152L50.6432 113.297C50.6432 113.297 50.3385 99.8274 50.564 97.2514C50.7895 94.6754 51.1003 88.2009 53.7822 83.5065" fill="white"/>
<g style="mix-blend-mode:multiply" opacity="0.5">
<path d="M50.4725 103.118C50.4725 107.768 50.6249 113.297 50.6249 113.297L26.3111 104.19L24.9946 103.262L24.062 96.9944L19.7954 95.3523L18.3386 94.2868L17.5463 95.3209L21.5752 99.1442L14.072 93.2275L13.1638 95.0765L16.2114 100.993L22.3615 106.133L23.9096 107.192L57.5246 118.329L50.4725 103.118Z" fill="#01D2FF"/>
</g>
<path d="M61.4012 80.053C61.4012 80.053 65.7227 83.0803 65.8202 90.2316C65.8629 93.3655 65.546 96.2924 64.845 101.426C64.1441 106.559 59.7921 123.275 56.4032 125.305C53.0142 127.336 47.7541 123.5 47.7541 123.5L22.3128 106.133L16.1627 101.025L13.1151 95.1079L14.0721 93.2276L21.5752 99.1442L17.5341 95.3022L18.3265 94.268L19.7893 95.3147L24.056 96.9568L24.9885 103.224L26.3051 104.152L50.6432 113.297C50.6432 113.297 50.3385 99.8274 50.564 97.2514C50.7895 94.6754 51.1003 88.2009 53.7822 83.5065" stroke="#263238" stroke-width="0.920966" stroke-miterlimit="10"/>
<path d="M50.6432 113.296L59.9322 120.191L62.3398 115.803C62.3398 115.803 64.0038 114.456 64.2476 113.441C64.4914 112.425 64.1806 110.777 64.4305 109.761C64.6804 108.746 65.9238 107.793 66.0396 105.336C66.1554 102.88 66.0396 100.83 66.0396 100.83C66.0396 100.83 68.051 92.3248 67.8316 88.6269C67.6122 84.929 64.144 78.3919 61.3646 78.2477C58.5852 78.1036 54.9707 78.536 52.167 82.8983C49.3632 87.2606 49.9361 99.9964 49.4973 100.792C49.0584 101.588 49.6679 105.518 49.6679 105.518C49.4243 105.705 49.2222 105.943 49.0751 106.217C48.928 106.49 48.8392 106.792 48.8146 107.104C48.7658 108.126 49.8386 110.639 49.8386 110.639L50.6432 113.296Z" fill="white" stroke="#263238" stroke-width="0.920966" stroke-miterlimit="10"/>
<g style="mix-blend-mode:multiply">
<path d="M49.741 97.5208C49.7601 98.6144 49.6805 99.7076 49.5033 100.786C49.1132 101.501 49.5581 104.729 49.6557 105.387C54.8803 107.055 60.405 107.484 65.814 106.64C65.9302 106.204 65.9997 105.757 66.0212 105.305C66.1432 102.855 66.0212 100.799 66.0212 100.799C66.0212 100.799 66.198 100.04 66.4418 98.8871C60.84 99.2532 55.216 98.7931 49.741 97.5208Z" fill="#01D2FF"/>
</g>
<g style="mix-blend-mode:multiply">
<path d="M51.7891 83.594C50.9175 85.3928 50.4299 88.0942 50.1495 90.8331C55.6828 93.0046 61.6487 93.7512 67.5269 93.008C67.7615 91.5585 67.8655 90.0898 67.8378 88.6206C67.7322 87.4593 67.4654 86.3196 67.0454 85.2361C61.9127 85.3593 56.7858 84.8075 51.7891 83.594Z" fill="#01D2FF"/>
</g>
<path d="M49.8386 110.708L50.6249 113.296L59.914 120.191L62.3216 115.803C62.3216 115.803 63.9856 114.456 64.2294 113.44C64.2729 113.264 64.2994 113.083 64.3086 112.901C59.4135 112.815 54.5499 112.077 49.8386 110.708Z" fill="#263238"/>
<path d="M56.5614 234.582C56.5614 234.582 56.7687 229.154 57.7805 221.219C58.7923 213.284 56.3603 202.015 55.9519 200.135C55.5436 198.255 56.1592 194.08 55.7508 192.614C55.3424 191.147 53.3676 184.892 54.5317 177.634C55.6959 170.376 56.6407 151.191 56.6407 151.191C56.6407 151.191 53.7089 148.74 52.8495 145.55C51.99 142.36 52.6483 141.357 52.6483 141.357" stroke="#263238" stroke-width="0.920966" stroke-miterlimit="10"/>
<path d="M57.9208 141.651L56.7932 148.069" stroke="#263238" stroke-width="0.920966" stroke-miterlimit="10"/>
<path d="M109.238 137.622H110.642V138.705H107.954V132.769H109.238V137.622ZM114.296 134.228H115.525V138.705H114.406V138.475C114.217 138.689 113.929 138.796 113.544 138.796H113.351C112.593 138.796 112.214 138.393 112.214 137.585V134.228H113.443V137.732C113.443 137.781 113.458 137.824 113.489 137.861C113.526 137.897 113.568 137.916 113.617 137.916H114.122C114.171 137.916 114.211 137.897 114.241 137.861C114.278 137.824 114.296 137.781 114.296 137.732V134.228ZM120.682 135.989H119.453V135.2C119.453 135.151 119.435 135.109 119.398 135.072C119.367 135.035 119.328 135.017 119.279 135.017H118.774C118.725 135.017 118.682 135.035 118.646 135.072C118.615 135.109 118.6 135.151 118.6 135.2V137.732C118.6 137.781 118.615 137.824 118.646 137.861C118.682 137.897 118.725 137.916 118.774 137.916H119.279C119.328 137.916 119.367 137.897 119.398 137.861C119.435 137.824 119.453 137.781 119.453 137.732V136.943H120.682V137.585C120.682 138.393 120.303 138.796 119.545 138.796H118.508C117.75 138.796 117.371 138.393 117.371 137.585V135.347C117.371 134.54 117.75 134.136 118.508 134.136H119.545C120.303 134.136 120.682 134.54 120.682 135.347V135.989ZM126.667 136.274V138.705H125.383V132.769H127.667C128.425 132.769 128.805 133.173 128.805 133.98V134.668C128.805 135.158 128.63 135.469 128.282 135.604C128.588 135.714 128.74 135.965 128.74 136.356V138.705H127.456V136.457C127.456 136.335 127.398 136.274 127.282 136.274H126.667ZM126.667 133.641V135.375H127.346C127.395 135.375 127.435 135.356 127.465 135.32C127.502 135.283 127.52 135.24 127.52 135.191V133.824C127.52 133.775 127.502 133.733 127.465 133.696C127.435 133.659 127.395 133.641 127.346 133.641H126.667ZM131.923 132.769V138.705H130.638V132.769H131.923ZM135.621 136.347V135.402H137.318V137.585C137.318 138.393 136.939 138.796 136.18 138.796H135.024C134.266 138.796 133.887 138.393 133.887 137.585V133.889C133.887 133.081 134.266 132.678 135.024 132.678H136.18C136.939 132.678 137.318 133.081 137.318 133.889V134.448H136.098V133.733C136.098 133.684 136.079 133.641 136.043 133.604C136.012 133.568 135.972 133.549 135.923 133.549H135.345C135.297 133.549 135.254 133.568 135.217 133.604C135.186 133.641 135.171 133.684 135.171 133.733V137.732C135.171 137.781 135.186 137.824 135.217 137.861C135.254 137.897 135.297 137.916 135.345 137.916H135.923C135.972 137.916 136.012 137.897 136.043 137.861C136.079 137.824 136.098 137.781 136.098 137.732V136.347H135.621ZM141.392 132.678C142.151 132.678 142.53 133.081 142.53 133.889V138.705H141.246V136.714H140.319V138.705H139.035V133.889C139.035 133.081 139.414 132.678 140.172 132.678H141.392ZM140.319 135.723H141.246V133.733C141.246 133.684 141.227 133.641 141.19 133.604C141.16 133.568 141.12 133.549 141.071 133.549H140.493C140.444 133.549 140.402 133.568 140.365 133.604C140.334 133.641 140.319 133.684 140.319 133.733V135.723ZM146.615 132.769H147.899V137.585C147.899 138.393 147.52 138.796 146.762 138.796H145.624C144.866 138.796 144.487 138.393 144.487 137.585V132.769H145.771V137.696C145.771 137.744 145.786 137.787 145.817 137.824C145.854 137.861 145.897 137.879 145.945 137.879H146.441C146.49 137.879 146.53 137.861 146.56 137.824C146.597 137.787 146.615 137.744 146.615 137.696V132.769ZM152.145 132.769C152.903 132.769 153.282 133.173 153.282 133.98V137.494C153.282 138.301 152.903 138.705 152.145 138.705H149.787V132.769H152.145ZM151.998 137.64V133.824C151.998 133.775 151.98 133.733 151.943 133.696C151.912 133.659 151.873 133.641 151.824 133.641H151.072V137.824H151.824C151.873 137.824 151.912 137.806 151.943 137.769C151.98 137.732 151.998 137.689 151.998 137.64Z" fill="black"/>
<path d="M102.545 159.294V163.73C102.545 164.699 102.09 165.183 101.18 165.183H99.8696C98.9596 165.183 98.5046 164.699 98.5046 163.73V159.294C98.5046 158.325 98.9596 157.841 99.8696 157.841H101.18C102.09 157.841 102.545 158.325 102.545 159.294ZM101.047 163.906V159.107C101.047 159.048 101.025 158.997 100.981 158.953C100.945 158.909 100.897 158.887 100.838 158.887H100.211C100.152 158.887 100.101 158.909 100.057 158.953C100.02 158.997 100.002 159.048 100.002 159.107V163.906C100.002 163.965 100.02 164.016 100.057 164.06C100.101 164.104 100.152 164.126 100.211 164.126H100.838C100.897 164.126 100.945 164.104 100.981 164.06C101.025 164.016 101.047 163.965 101.047 163.906ZM106.883 160.758C107.793 160.758 108.248 161.242 108.248 162.211V163.73C108.248 164.699 107.793 165.183 106.883 165.183H105.584C104.674 165.183 104.219 164.699 104.219 163.73V159.294C104.219 158.325 104.674 157.841 105.584 157.841H106.773C107.683 157.841 108.138 158.325 108.138 159.294V159.822H106.729V159.261C106.729 159.202 106.707 159.151 106.663 159.107C106.626 159.063 106.579 159.041 106.52 159.041H105.804C105.746 159.041 105.694 159.063 105.65 159.107C105.614 159.151 105.595 159.202 105.595 159.261V160.901C105.793 160.806 106.039 160.758 106.333 160.758H106.883ZM106.883 163.609V162.332C106.883 162.273 106.861 162.222 106.817 162.178C106.78 162.134 106.733 162.112 106.674 162.112H105.804C105.746 162.112 105.694 162.134 105.65 162.178C105.614 162.222 105.595 162.273 105.595 162.332V163.609C105.595 163.668 105.614 163.719 105.65 163.763C105.694 163.807 105.746 163.829 105.804 163.829H106.674C106.733 163.829 106.78 163.807 106.817 163.763C106.861 163.719 106.883 163.668 106.883 163.609ZM116.372 161.429C116.717 161.672 116.889 162.086 116.889 162.673V163.73C116.889 164.699 116.434 165.183 115.524 165.183H114.225C113.315 165.183 112.86 164.699 112.86 163.73V162.673C112.86 162.086 113.033 161.672 113.377 161.429C113.077 161.209 112.926 160.813 112.926 160.24V159.294C112.926 158.325 113.381 157.841 114.291 157.841H115.458C116.368 157.841 116.823 158.325 116.823 159.294V160.24C116.823 160.813 116.673 161.209 116.372 161.429ZM114.302 159.294V160.637C114.302 160.695 114.32 160.747 114.357 160.791C114.401 160.835 114.453 160.857 114.511 160.857H115.249C115.308 160.857 115.355 160.835 115.392 160.791C115.436 160.747 115.458 160.695 115.458 160.637V159.294C115.458 159.235 115.436 159.184 115.392 159.14C115.355 159.096 115.308 159.074 115.249 159.074H114.511C114.453 159.074 114.401 159.096 114.357 159.14C114.32 159.184 114.302 159.235 114.302 159.294ZM115.524 163.763V162.299C115.524 162.24 115.502 162.189 115.458 162.145C115.421 162.101 115.374 162.079 115.315 162.079H114.445C114.387 162.079 114.335 162.101 114.291 162.145C114.254 162.189 114.236 162.24 114.236 162.299V163.763C114.236 163.822 114.254 163.873 114.291 163.917C114.335 163.961 114.387 163.983 114.445 163.983H115.315C115.374 163.983 115.421 163.961 115.458 163.917C115.502 163.873 115.524 163.822 115.524 163.763ZM118.637 157.951H122.269L120.794 165.073H119.396L120.552 159.129H118.637V157.951ZM128.665 162.266H128.115C127.205 162.266 126.75 161.782 126.75 160.813V159.294C126.75 158.325 127.205 157.841 128.115 157.841H129.414C130.324 157.841 130.779 158.325 130.779 159.294V163.73C130.779 164.699 130.324 165.183 129.414 165.183H128.225C127.315 165.183 126.86 164.699 126.86 163.73V163.202H128.269V163.763C128.269 163.822 128.287 163.873 128.324 163.917C128.368 163.961 128.42 163.983 128.478 163.983H129.194C129.252 163.983 129.3 163.961 129.337 163.917C129.381 163.873 129.403 163.822 129.403 163.763V162.123C129.205 162.218 128.959 162.266 128.665 162.266ZM128.115 159.415V160.692C128.115 160.751 128.133 160.802 128.17 160.846C128.214 160.89 128.265 160.912 128.324 160.912H129.194C129.252 160.912 129.3 160.89 129.337 160.846C129.381 160.802 129.403 160.751 129.403 160.692V159.415C129.403 159.356 129.381 159.305 129.337 159.261C129.3 159.217 129.252 159.195 129.194 159.195H128.324C128.265 159.195 128.214 159.217 128.17 159.261C128.133 159.305 128.115 159.356 128.115 159.415ZM134.126 157.962V165.084H132.629V157.962H134.126ZM142.359 161.429C142.704 161.672 142.877 162.086 142.877 162.673V163.73C142.877 164.699 142.422 165.183 141.512 165.183H140.213C139.303 165.183 138.848 164.699 138.848 163.73V163.147H140.224V163.796C140.224 163.855 140.242 163.906 140.279 163.95C140.323 163.994 140.374 164.016 140.433 164.016H141.303C141.361 164.016 141.409 163.994 141.446 163.95C141.49 163.906 141.512 163.855 141.512 163.796V162.277C141.512 162.218 141.49 162.167 141.446 162.123C141.409 162.079 141.361 162.057 141.303 162.057H140.169V160.868H141.237C141.295 160.868 141.343 160.846 141.38 160.802C141.424 160.758 141.446 160.706 141.446 160.648V159.261C141.446 159.202 141.424 159.151 141.38 159.107C141.343 159.063 141.295 159.041 141.237 159.041H140.499C140.44 159.041 140.389 159.063 140.345 159.107C140.308 159.151 140.29 159.202 140.29 159.261V159.965H138.914V159.294C138.914 158.325 139.369 157.841 140.279 157.841H141.446C142.356 157.841 142.811 158.325 142.811 159.294V160.24C142.811 160.813 142.66 161.209 142.359 161.429ZM147.292 160.758C148.202 160.758 148.657 161.242 148.657 162.211V163.73C148.657 164.699 148.202 165.183 147.292 165.183H145.993C145.083 165.183 144.628 164.699 144.628 163.73V159.294C144.628 158.325 145.083 157.841 145.993 157.841H147.182C148.092 157.841 148.547 158.325 148.547 159.294V159.822H147.138V159.261C147.138 159.202 147.116 159.151 147.072 159.107C147.035 159.063 146.987 159.041 146.929 159.041H146.213C146.154 159.041 146.103 159.063 146.059 159.107C146.022 159.151 146.004 159.202 146.004 159.261V160.901C146.202 160.806 146.448 160.758 146.742 160.758H147.292ZM147.292 163.609V162.332C147.292 162.273 147.27 162.222 147.226 162.178C147.189 162.134 147.141 162.112 147.083 162.112H146.213C146.154 162.112 146.103 162.134 146.059 162.178C146.022 162.222 146.004 162.273 146.004 162.332V163.609C146.004 163.668 146.022 163.719 146.059 163.763C146.103 163.807 146.154 163.829 146.213 163.829H147.083C147.141 163.829 147.189 163.807 147.226 163.763C147.27 163.719 147.292 163.668 147.292 163.609ZM157.276 159.294V163.73C157.276 164.699 156.821 165.183 155.911 165.183H154.601C153.691 165.183 153.236 164.699 153.236 163.73V159.294C153.236 158.325 153.691 157.841 154.601 157.841H155.911C156.821 157.841 157.276 158.325 157.276 159.294ZM155.779 163.906V159.107C155.779 159.048 155.757 158.997 155.713 158.953C155.676 158.909 155.628 158.887 155.57 158.887H154.942C154.883 158.887 154.832 158.909 154.788 158.953C154.751 158.997 154.733 159.048 154.733 159.107V163.906C154.733 163.965 154.751 164.016 154.788 164.06C154.832 164.104 154.883 164.126 154.942 164.126H155.57C155.628 164.126 155.676 164.104 155.713 164.06C155.757 164.016 155.779 163.965 155.779 163.906ZM162.924 159.294V163.73C162.924 164.699 162.469 165.183 161.559 165.183H160.249C159.339 165.183 158.884 164.699 158.884 163.73V159.294C158.884 158.325 159.339 157.841 160.249 157.841H161.559C162.469 157.841 162.924 158.325 162.924 159.294ZM161.427 163.906V159.107C161.427 159.048 161.405 158.997 161.361 158.953C161.324 158.909 161.277 158.887 161.218 158.887H160.591C160.532 158.887 160.481 158.909 160.437 158.953C160.4 158.997 160.381 159.048 160.381 159.107V163.906C160.381 163.965 160.4 164.016 160.437 164.06C160.481 164.104 160.532 164.126 160.591 164.126H161.218C161.277 164.126 161.324 164.104 161.361 164.06C161.405 164.016 161.427 163.965 161.427 163.906Z" fill="black"/>
</svg>
